{
	"asset":{
		"generator":"Khronos glTF Blender I/O v4.0.44",
		"version":"2.0"
	},
	"scene":0,
	"scenes":[
		{
			"name":"Scene",
			"nodes":[
				0
			]
		}
	],
	"nodes":[
		{
			"mesh":0,
			"name":"Mage_Hat",
			"rotation":[
				-0.13052615523338318,
				0,
				0,
				0.9914448857307434
			],
			"translation":[
				0,
				1.7841001749038696,
				0
			]
		}
	],
	"materials":[
		{
			"doubleSided":true,
			"name":"mage_texture",
			"pbrMetallicRoughness":{
				"baseColorTexture":{
					"index":0
				},
				"metallicFactor":0,
				"roughnessFactor":0.5
			}
		}
	],
	"meshes":[
		{
			"name":"Cube.156",
			"primitives":[
				{
					"attributes":{
						"POSITION":0,
						"NORMAL":1,
						"TEXCOORD_0":2
					},
					"indices":3,
					"material":0
				}
			]
		}
	],
	"textures":[
		{
			"sampler":0,
			"source":0
		}
	],
	"images":[
		{
			"mimeType":"image/png",
			"name":"mage_texture",
			"uri":"mage_texture.png"
		}
	],
	"accessors":[
		{
			"bufferView":0,
			"componentType":5126,
			"count":411,
			"max":[
				1.0464543104171753,
				0.9876133799552917,
				1.0228776931762695
			],
			"min":[
				-1.0464541912078857,
				-0.14521382749080658,
				-1.0714528560638428
			],
			"type":"VEC3"
		},
		{
			"bufferView":1,
			"componentType":5126,
			"count":411,
			"type":"VEC3"
		},
		{
			"bufferView":2,
			"componentType":5126,
			"count":411,
			"type":"VEC2"
		},
		{
			"bufferView":3,
			"componentType":5123,
			"count":1188,
			"type":"SCALAR"
		}
	],
	"bufferViews":[
		{
			"buffer":0,
			"byteLength":4932,
			"byteOffset":0,
			"target":34962
		},
		{
			"buffer":0,
			"byteLength":4932,
			"byteOffset":4932,
			"target":34962
		},
		{
			"buffer":0,
			"byteLength":3288,
			"byteOffset":9864,
			"target":34962
		},
		{
			"buffer":0,
			"byteLength":2376,
			"byteOffset":13152,
			"target":34963
		}
	],
	"samplers":[
		{
			"magFilter":9729,
			"minFilter":9987
		}
	],
	"buffers":[
		{
			"byteLength":15528,
			"uri":"mage_hat.bin"
		}
	]
}
