# Blender 4.0.2
# www.blender.org
mtllib Fish4.mtl
o Cube.002
v 0.011702 -0.003845 -0.441132
v 0.011988 -0.005664 -0.287800
v 0.047987 -0.005664 -0.287800
v 0.024318 -0.003845 -0.441132
v 0.028243 -0.073693 -0.261259
v 0.028243 0.077746 -0.264728
v 0.009156 -0.071863 -0.441132
v 0.017045 0.083524 -0.428032
v 0.011702 -0.071863 -0.441132
v 0.011702 0.082516 -0.428032
v 0.011988 -0.073693 -0.261259
v 0.000212 0.077746 -0.264728
v 0.000892 -0.003845 -0.127315
v 0.071873 -0.003845 -0.127315
v 0.032943 -0.134682 -0.127315
v 0.032943 0.147008 -0.138233
v 0.000892 -0.134682 -0.127315
v 0.000892 0.147008 -0.138233
v 0.006853 -0.008531 -0.492934
v 0.005790 -0.008531 -0.492934
v 0.007027 -0.104729 -0.492934
v 0.007027 0.098783 -0.474406
v 0.006853 -0.104729 -0.492934
v 0.006853 0.098783 -0.474406
v 0.000654 -0.308049 0.263436
v 0.000654 -0.305256 0.241585
v 0.006853 -0.004509 -0.642856
v 0.006853 -0.174745 -0.636283
v 0.019275 -0.037854 -0.441132
v 0.038115 -0.039679 -0.274530
v 0.011988 -0.039679 -0.274530
v 0.011702 -0.037854 -0.441132
v 0.052408 -0.069263 -0.127315
v 0.000892 -0.069263 -0.127315
v 0.007282 -0.056630 -0.492934
v 0.006853 -0.056630 -0.492934
v 0.006853 0.164150 -0.641461
v 0.006853 -0.094628 -0.664295
v 0.006853 0.099051 -0.674243
v 0.006853 0.063416 -0.583807
v 0.011702 0.033744 -0.434643
v 0.011988 0.035655 -0.276371
v 0.038206 0.035655 -0.276371
v 0.019369 0.033744 -0.434643
v 0.000892 0.070884 -0.132724
v 0.052588 0.070884 -0.132724
v 0.006853 0.044629 -0.483756
v 0.007415 0.044629 -0.483756
v 0.006853 -0.075947 -0.596439
v 0.006853 0.137948 -0.570939
v 0.006853 -0.160257 -0.594628
v 0.006853 -0.009749 -0.596439
v -0.005821 0.000915 0.051027
v 0.085157 0.000915 0.051027
v 0.035259 -0.175166 0.060460
v 0.035259 0.187715 -0.033565
v -0.005821 -0.175166 0.060460
v -0.000946 0.187715 -0.033565
v 0.060208 -0.082933 0.051027
v -0.005821 -0.082933 0.051027
v -0.005821 0.096695 0.044095
v 0.060439 0.096695 0.044095
v -0.005821 0.016139 0.297821
v 0.085157 0.016139 0.297821
v 0.035259 -0.176711 0.308302
v 0.035259 0.204249 0.267059
v -0.005821 -0.176711 0.308302
v 0.001726 0.204249 0.267059
v 0.060208 -0.067709 0.297821
v -0.005821 -0.067709 0.297821
v -0.005821 0.111919 0.290889
v 0.060439 0.111919 0.290889
v -0.002836 0.037897 0.504105
v 0.071781 0.037897 0.504105
v 0.035259 -0.154953 0.514586
v 0.035259 0.181988 0.448190
v -0.005821 -0.154953 0.514586
v 0.000140 0.181988 0.448190
v 0.060208 -0.045951 0.504105
v -0.002836 -0.045951 0.504105
v -0.002836 0.133678 0.497173
v 0.060439 0.133678 0.497173
v -0.002836 0.078885 0.676231
v 0.039902 0.078885 0.676231
v 0.035259 -0.110947 0.676147
v 0.035259 0.162607 0.553909
v -0.005821 -0.110947 0.676147
v -0.002836 0.162607 0.553909
v 0.060208 -0.004963 0.676231
v -0.005821 -0.004963 0.676231
v -0.002836 0.125293 0.613947
v 0.046796 0.123000 0.616966
v -0.000822 0.018143 0.807006
v 0.021095 0.018143 0.807006
v 0.011229 -0.037547 0.806981
v -0.000822 -0.037547 0.806981
v 0.018549 -0.006455 0.783263
v -0.000822 -0.006455 0.783263
v 0.000654 -0.231627 0.320450
v 0.000654 -0.222769 0.282829
v 0.000654 -0.169761 0.355021
v 0.000654 -0.170608 0.307696
v 0.000654 -0.250669 0.217931
v 0.000654 -0.197295 0.215505
v 0.000654 -0.170002 0.308303
v 0.000654 -0.163330 0.244011
v 0.011988 -0.073693 -0.261259
v 0.000892 -0.134682 -0.127315
v 0.011988 -0.125258 -0.310309
v 0.000892 -0.186247 -0.176365
v 0.011988 -0.169277 -0.311566
v 0.000892 -0.239070 -0.250569
v 0.000892 -0.193793 -0.070719
v 0.000892 -0.237812 -0.158758
v 0.000892 -0.130909 -0.123542
v 0.000892 -0.152290 -0.014123
v -0.000946 0.231181 -0.106008
v 0.000892 0.190474 -0.210676
v 0.000212 0.110346 -0.328116
v 0.000892 0.251103 -0.259650
v 0.000212 0.184600 -0.329927
v -0.000946 0.257382 -0.197190
v 0.000892 0.251262 -0.258887
v -0.000946 0.187715 -0.033565
v 0.001726 0.204249 0.267059
v -0.000424 0.233200 0.037187
v 0.001204 0.255354 0.246111
v 0.000155 0.289372 0.123539
v 0.000625 0.295773 0.183906
v -0.011702 -0.003845 -0.441132
v -0.011988 -0.005664 -0.287800
v -0.047987 -0.005664 -0.287800
v -0.024318 -0.003845 -0.441132
v -0.028243 -0.073693 -0.261259
v -0.028243 0.077746 -0.264728
v -0.009156 -0.071863 -0.441132
v -0.017045 0.083524 -0.428032
v -0.011702 -0.071863 -0.441132
v -0.011702 0.082516 -0.428032
v -0.011988 -0.073693 -0.261259
v -0.000212 0.077746 -0.264728
v -0.000892 -0.003845 -0.127315
v -0.071873 -0.003845 -0.127315
v -0.032943 -0.134682 -0.127315
v -0.032943 0.147008 -0.138233
v -0.000892 -0.134682 -0.127315
v -0.000892 0.147008 -0.138233
v -0.006853 -0.008531 -0.492934
v -0.005790 -0.008531 -0.492934
v -0.007027 -0.104729 -0.492934
v -0.007027 0.098783 -0.474406
v -0.006853 -0.104729 -0.492934
v -0.006853 0.098783 -0.474406
v -0.000654 -0.308049 0.263436
v -0.000654 -0.305256 0.241585
v -0.006853 -0.004509 -0.642856
v -0.006853 -0.174745 -0.636283
v -0.019275 -0.037854 -0.441132
v -0.038115 -0.039679 -0.274530
v -0.011988 -0.039679 -0.274530
v -0.011702 -0.037854 -0.441132
v -0.052408 -0.069263 -0.127315
v -0.000892 -0.069263 -0.127315
v -0.007282 -0.056630 -0.492934
v -0.006853 -0.056630 -0.492934
v -0.006853 0.164150 -0.641461
v -0.006853 -0.094628 -0.664295
v -0.006853 0.099051 -0.674243
v -0.006853 0.063416 -0.583807
v -0.011702 0.033744 -0.434643
v -0.011988 0.035655 -0.276371
v -0.038206 0.035655 -0.276371
v -0.019369 0.033744 -0.434643
v -0.000892 0.070884 -0.132724
v -0.052588 0.070884 -0.132724
v -0.006853 0.044629 -0.483756
v -0.007415 0.044629 -0.483756
v -0.006853 -0.075947 -0.596439
v -0.006853 0.137948 -0.570939
v -0.006853 -0.160257 -0.594628
v -0.006853 -0.009749 -0.596439
v 0.005821 0.000915 0.051027
v -0.085157 0.000915 0.051027
v -0.035259 -0.175166 0.060460
v -0.035259 0.187715 -0.033565
v 0.005821 -0.175166 0.060460
v 0.000946 0.187715 -0.033565
v -0.060208 -0.082933 0.051027
v 0.005821 -0.082933 0.051027
v 0.005821 0.096695 0.044095
v -0.060439 0.096695 0.044095
v 0.005821 0.016139 0.297821
v -0.085157 0.016139 0.297821
v -0.035259 -0.176711 0.308302
v -0.035259 0.204249 0.267059
v 0.005821 -0.176711 0.308302
v -0.001726 0.204249 0.267059
v -0.060208 -0.067709 0.297821
v 0.005821 -0.067709 0.297821
v 0.005821 0.111919 0.290889
v -0.060439 0.111919 0.290889
v 0.002836 0.037897 0.504105
v -0.071781 0.037897 0.504105
v -0.035259 -0.154953 0.514586
v -0.035259 0.181988 0.448190
v 0.005821 -0.154953 0.514586
v -0.000140 0.181988 0.448190
v -0.060208 -0.045951 0.504105
v 0.002836 -0.045951 0.504105
v 0.002836 0.133678 0.497173
v -0.060439 0.133678 0.497173
v 0.002836 0.078885 0.676231
v -0.039902 0.078885 0.676231
v -0.035259 -0.110947 0.676147
v -0.035259 0.162607 0.553909
v 0.005821 -0.110947 0.676147
v 0.002836 0.162607 0.553909
v -0.060208 -0.004963 0.676231
v 0.005821 -0.004963 0.676231
v 0.002836 0.125293 0.613947
v -0.046796 0.123000 0.616966
v 0.000822 0.018143 0.807006
v -0.021095 0.018143 0.807006
v -0.011229 -0.037547 0.806981
v 0.000822 -0.037547 0.806981
v -0.018549 -0.006455 0.783263
v 0.000822 -0.006455 0.783263
v -0.000654 -0.231627 0.320450
v -0.000654 -0.222769 0.282829
v -0.000654 -0.169761 0.355021
v -0.000654 -0.170608 0.307696
v -0.000654 -0.250669 0.217931
v -0.000654 -0.197295 0.215505
v -0.000654 -0.170002 0.308303
v -0.000654 -0.163330 0.244011
v -0.011988 -0.073693 -0.261259
v -0.000892 -0.134682 -0.127315
v -0.011988 -0.125258 -0.310309
v -0.000892 -0.186247 -0.176365
v -0.011988 -0.169277 -0.311566
v -0.000892 -0.239070 -0.250569
v -0.000892 -0.193793 -0.070719
v -0.000892 -0.237812 -0.158758
v -0.000892 -0.130909 -0.123542
v -0.000892 -0.152290 -0.014123
v 0.000946 0.231181 -0.106008
v -0.000892 0.190474 -0.210676
v -0.000212 0.110346 -0.328116
v -0.000892 0.251103 -0.259650
v -0.000212 0.184600 -0.329927
v 0.000946 0.257382 -0.197190
v -0.000892 0.251262 -0.258887
v 0.000946 0.187715 -0.033565
v -0.001726 0.204249 0.267059
v 0.000424 0.233200 0.037187
v -0.001204 0.255354 0.246111
v -0.000155 0.289372 0.123539
v -0.000625 0.295773 0.183906
vn -0.9993 -0.0027 -0.0375
vn -0.9993 -0.0014 -0.0376
vn -0.1690 0.9246 0.3414
vn 0.9846 0.1496 -0.0902
vn -0.9993 -0.0011 -0.0373
vn -0.9993 -0.0022 -0.0370
vn -0.9993 -0.0012 -0.0373
vn -0.0000 -0.9999 -0.0102
vn -0.9953 -0.0157 0.0957
vn -0.9952 -0.0150 0.0968
vn -0.9953 -0.0157 0.0958
vn -0.0302 0.9990 0.0322
vn 0.9628 -0.2366 -0.1306
vn 0.9553 0.2476 -0.1616
vn 0.9550 0.2477 -0.1633
vn 0.9570 0.2475 -0.1511
vn -0.0000 0.8771 -0.4803
vn -0.9973 0.0038 -0.0732
vn -0.9973 -0.0095 -0.0728
vn -0.9973 0.0037 -0.0732
vn 0.9438 -0.2977 -0.1440
vn -0.9967 -0.0108 -0.0808
vn -0.9966 -0.0110 -0.0822
vn -0.9973 -0.0098 -0.0734
vn -0.0000 -0.9101 -0.4144
vn 0.9553 0.0839 -0.2834
vn -0.0000 0.8444 -0.5357
vn -0.9956 -0.0000 0.0932
vn 0.9895 -0.1250 -0.0726
vn -1.0000 -0.0000 -0.0000
vn 0.9609 -0.0416 -0.2737
vn 0.9408 -0.2989 -0.1598
vn 0.9481 -0.2995 -0.1069
vn -0.0000 -0.9775 -0.2108
vn 0.9762 0.0575 -0.2089
vn -0.9951 -0.0991 -0.0000
vn 0.9571 0.2475 -0.1506
vn -0.9954 -0.0163 0.0946
vn 0.9685 0.2108 -0.1322
vn 0.9683 0.2495 -0.0153
vn 0.9663 0.2571 -0.0149
vn 0.9663 0.2568 -0.0149
vn 0.9684 0.2488 -0.0153
vn 0.9583 -0.2851 0.0176
vn -0.9977 0.0681 0.0009
vn -0.9976 0.0685 0.0011
vn -0.9971 0.0758 0.0034
vn -0.9994 0.0126 -0.0333
vn 0.9666 0.2438 -0.0785
vn 0.9593 -0.2745 -0.0670
vn 0.9565 -0.2846 -0.0636
vn 0.9566 -0.2843 -0.0638
vn 0.9593 -0.2743 -0.0671
vn 0.9722 0.2177 -0.0865
vn 1.0000 -0.0048 -0.0027
vn 0.9750 -0.2209 0.0233
vn 0.9414 0.3373 0.0004
vn 0.9825 0.1858 0.0123
vn 0.9757 -0.2125 0.0540
vn 0.9707 -0.2400 0.0066
vn -0.0000 0.9985 -0.0549
vn -0.0000 -1.0000 -0.0062
vn -0.9998 0.0178 -0.0129
vn -0.9998 0.0175 -0.0129
vn -0.9998 0.0137 -0.0124
vn 0.9731 -0.2231 0.0568
vn 0.8529 0.5083 0.1193
vn 0.9847 0.0991 0.1433
vn -0.9999 0.0005 0.0144
vn -0.9999 -0.0000 0.0145
vn -0.0000 0.9925 0.1220
vn -0.0000 -0.9945 0.1049
vn -0.9999 0.0142 0.0057
vn -0.9999 0.0010 0.0144
vn -0.9971 0.0765 0.0037
vn 0.9362 -0.1671 0.3091
vn 0.0039 0.8482 0.5297
vn 0.9581 0.0979 0.2692
vn 0.0004 0.8020 0.5973
vn -0.0000 0.9836 0.1803
vn -0.0000 -0.9648 0.2628
vn -0.9998 0.0133 -0.0123
vn -0.9997 0.0211 -0.0107
vn 0.9955 0.0518 0.0798
vn -0.0000 -0.6945 0.7195
vn -0.0000 0.6065 0.7951
vn -0.9992 0.0199 0.0347
vn -0.9992 0.0134 0.0373
vn -0.9992 0.0070 0.0399
vn -0.9992 0.0069 0.0399
vn -0.0000 -0.8721 0.4893
vn -0.0000 0.9069 0.4213
vn 1.0000 -0.0000 -0.0000
vn -0.0000 1.0000 -0.0000
vn 0.9968 -0.0548 0.0576
vn 0.9955 -0.0580 0.0744
vn -0.0000 0.9320 -0.3625
vn 0.9998 0.0178 0.0107
vn 0.9998 0.0187 0.0113
vn 0.9996 0.0231 0.0143
vn 1.0000 -0.0021 -0.0056
vn 0.9996 0.0244 0.0152
vn 1.0000 0.0045 -0.0088
vn 1.0000 0.0026 -0.0082
vn 1.0000 0.0025 -0.0082
vn 1.0000 0.0020 -0.0080
vn 0.9993 -0.0027 -0.0375
vn 0.9993 -0.0014 -0.0376
vn 0.1690 0.9246 0.3414
vn -0.9846 0.1496 -0.0902
vn 0.9993 -0.0011 -0.0373
vn 0.9993 -0.0012 -0.0373
vn 0.9993 -0.0022 -0.0370
vn 0.9953 -0.0157 0.0957
vn 0.9953 -0.0157 0.0958
vn 0.9952 -0.0150 0.0968
vn 0.0302 0.9990 0.0322
vn -0.9628 -0.2366 -0.1306
vn -0.9553 0.2476 -0.1616
vn -0.9570 0.2475 -0.1511
vn -0.9550 0.2477 -0.1633
vn 0.9973 0.0038 -0.0732
vn 0.9973 0.0037 -0.0732
vn 0.9973 -0.0095 -0.0728
vn -0.9438 -0.2977 -0.1440
vn 0.9967 -0.0108 -0.0808
vn 0.9973 -0.0098 -0.0734
vn 0.9966 -0.0110 -0.0822
vn -0.9553 0.0839 -0.2834
vn 0.9956 -0.0000 0.0932
vn -0.9895 -0.1250 -0.0726
vn -0.9609 -0.0416 -0.2737
vn -0.9408 -0.2989 -0.1598
vn -0.9481 -0.2995 -0.1069
vn -0.9762 0.0575 -0.2089
vn 0.9951 -0.0991 -0.0000
vn -0.9571 0.2475 -0.1506
vn 0.9954 -0.0163 0.0946
vn -0.9685 0.2108 -0.1322
vn -0.9683 0.2495 -0.0153
vn -0.9663 0.2568 -0.0149
vn -0.9663 0.2571 -0.0149
vn -0.9684 0.2488 -0.0153
vn -0.9583 -0.2851 0.0176
vn 0.9977 0.0681 0.0009
vn 0.9971 0.0758 0.0034
vn 0.9976 0.0685 0.0011
vn 0.9994 0.0126 -0.0333
vn -0.9666 0.2438 -0.0785
vn -0.9593 -0.2745 -0.0670
vn -0.9566 -0.2843 -0.0638
vn -0.9565 -0.2846 -0.0636
vn -0.9593 -0.2743 -0.0671
vn -0.9722 0.2177 -0.0865
vn -1.0000 -0.0048 -0.0027
vn -1.0000 -0.0023 -0.0053
vn -1.0000 -0.0035 -0.0041
vn -0.9750 -0.2209 0.0233
vn -0.9414 0.3373 0.0004
vn -0.9825 0.1858 0.0123
vn -0.9757 -0.2125 0.0540
vn -0.9707 -0.2400 0.0066
vn 0.9998 0.0178 -0.0129
vn 0.9998 0.0137 -0.0124
vn 0.9998 0.0175 -0.0129
vn -0.9731 -0.2231 0.0568
vn -0.8529 0.5083 0.1193
vn -0.9847 0.0991 0.1433
vn 0.9999 0.0005 0.0144
vn 0.9999 -0.0000 0.0145
vn 0.9999 0.0142 0.0057
vn 0.9999 0.0010 0.0144
vn 0.9971 0.0765 0.0037
vn -0.9362 -0.1671 0.3091
vn -0.0039 0.8482 0.5297
vn -0.9581 0.0979 0.2692
vn -0.0004 0.8020 0.5973
vn 0.9998 0.0133 -0.0123
vn 0.9997 0.0211 -0.0107
vn -0.9955 0.0518 0.0798
vn 0.9992 0.0199 0.0347
vn 0.9992 0.0070 0.0399
vn 0.9992 0.0134 0.0373
vn 0.9992 0.0069 0.0399
vn -0.9968 -0.0548 0.0576
vn -0.9955 -0.0580 0.0744
vn -0.9998 0.0178 0.0107
vn -1.0000 -0.0021 -0.0056
vn -0.9996 0.0244 0.0152
vn -1.0000 0.0045 -0.0088
vn -1.0000 0.0025 -0.0082
vn -1.0000 0.0026 -0.0082
vn -1.0000 0.0020 -0.0080
vt 0.000000 0.000000
vt 0.750000 0.500000
vt 0.625000 0.500000
vt 0.561922 0.500000
vt 0.625000 0.750000
vt 0.561921 0.750000
vt 0.250000 0.500000
vt 0.375000 0.500000
vt 0.375000 0.750000
vt 0.250000 0.750000
vt 0.750000 0.750000
vt 0.437500 0.500000
vt 0.500000 0.500000
vt 0.500000 0.750000
vt 0.437500 0.750000
vt 0.561921 0.750000
vt 0.437500 0.750000
vt 0.561921 0.500000
vt 0.625000 0.875000
vt 0.561922 0.875000
vt 0.500000 0.875000
vt 0.437500 0.875000
vt 0.375000 0.875000
s 1
usemtl Material.011
f 45/1/1 13/1/2 53/1/2 61/1/1
f 10/2/3 8/3/3 22/3/3 24/2/3
f 44/4/4 8/3/4 6/5/4 43/6/4
f 34/1/5 17/1/6 57/1/6 60/1/7
f 9/7/8 7/8/8 5/9/8 11/10/8
f 41/1/9 10/1/10 24/1/10 47/1/11
f 8/3/12 10/2/12 12/11/12 6/5/12
f 29/12/13 4/13/13 3/14/13 30/15/13
f 43/6/14 6/5/15 16/5/15 46/16/16
f 6/5/17 12/11/17 18/11/17 16/5/17
f 42/1/18 2/1/19 13/1/20 45/1/18
f 30/15/21 3/14/21 14/14/21 33/17/21
f 31/1/22 11/1/23 17/1/23 34/1/24
f 11/10/25 5/9/25 15/9/25 17/10/25
f 44/4/26 4/13/26 20/13/26 48/18/26
f 7/8/27 9/7/27 23/7/27 21/8/27
f 32/1/28 1/1/28 19/1/28 36/1/28
f 29/12/29 7/8/29 21/8/29 35/12/29
f 51/1/30 49/1/30 38/1/30 28/1/30
f 23/1/30 36/1/30 49/1/30 51/1/30
f 36/1/30 19/1/30 52/1/30 49/1/30
f 52/1/30 40/1/30 39/1/30 27/1/30
f 40/1/30 50/1/30 37/1/30 39/1/30
f 19/1/30 47/1/30 40/1/30 52/1/30
f 4/13/31 29/12/31 35/12/31 20/13/31
f 9/1/28 32/1/28 36/1/28 23/1/28
f 49/1/30 52/1/30 27/1/30 38/1/30
f 2/1/19 31/1/22 34/1/24 13/1/20
f 5/9/32 30/15/32 33/17/32 15/9/32
f 7/8/33 29/12/33 30/15/33 5/9/33
f 17/10/34 15/9/34 55/9/34 57/10/34
f 47/1/30 24/1/30 50/1/30 40/1/30
f 8/3/35 44/4/35 48/18/35 22/3/35
f 12/1/36 42/1/36 45/1/36 18/1/36
f 3/14/37 43/6/14 46/16/16 14/14/37
f 1/1/38 41/1/9 47/1/11 19/1/38
f 13/1/2 34/1/5 60/1/7 53/1/2
f 4/13/39 44/4/39 43/6/39 3/14/39
f 62/16/40 56/5/41 66/5/41 72/16/42
f 54/14/43 62/16/40 72/16/42 64/14/43
f 59/17/44 54/14/44 64/14/44 69/17/44
f 58/1/45 61/1/45 71/1/46 68/1/47
f 18/1/48 45/1/48 61/1/48 58/1/48
f 14/14/49 46/16/49 62/16/49 54/14/49
f 33/17/50 14/14/51 54/14/51 59/17/52
f 15/9/53 33/17/50 59/17/52 55/9/53
f 46/16/54 16/5/54 56/5/54 62/16/54
f 18/1/55 12/1/55 119/1/55 118/1/55
f 65/9/56 69/17/56 79/17/56 75/9/56
f 72/16/57 66/5/57 76/5/57 82/16/57
f 64/14/58 72/16/58 82/16/58 74/14/58
f 69/17/59 64/14/59 74/14/59 79/17/59
f 55/9/60 59/17/60 69/17/60 65/9/60
f 53/1/30 60/1/30 70/1/30 63/1/30
f 56/5/61 58/11/61 68/11/61 66/5/61
f 57/10/62 55/9/62 65/9/62 67/10/62
f 60/1/30 57/1/30 67/1/30 70/1/30
f 61/1/30 53/1/30 63/1/30 71/1/30
f 73/1/63 80/1/64 90/1/65 83/1/63
f 75/9/66 79/17/66 89/17/66 85/9/66
f 82/16/67 76/5/67 86/5/67 92/16/67
f 74/14/68 82/16/68 92/16/68 84/14/68
f 63/1/69 70/1/70 80/1/70 73/1/69
f 66/5/71 68/11/71 78/11/71 76/5/71
f 67/10/72 65/9/72 75/9/72 77/10/72
f 70/1/73 67/1/73 77/1/73 80/1/73
f 71/1/74 63/1/69 73/1/69 81/1/74
f 68/1/47 71/1/46 81/1/75 78/1/75
f 85/9/76 89/17/76 97/17/76 95/9/76
f 92/16/77 86/5/77 88/19/77 91/20/77
f 89/17/78 84/14/78 94/14/78 97/17/78
f 84/14/79 92/16/79 91/20/79 83/21/79
f 76/5/80 78/11/80 88/11/80 86/5/80
f 77/10/81 75/9/81 85/9/81 87/10/81
f 80/1/64 77/1/82 87/1/82 90/1/65
f 81/1/30 73/1/30 83/1/30 91/1/30
f 78/1/83 81/1/83 91/1/83 88/1/83
f 79/17/84 74/14/84 84/14/84 89/17/84
f 97/17/85 94/14/85 93/21/85 98/22/85
f 95/9/86 97/17/86 98/22/86 96/23/86
f 83/1/87 90/1/88 98/1/89 93/1/87
f 90/1/88 87/1/90 96/1/90 98/1/89
f 87/10/91 85/9/91 95/9/91 96/10/91
f 84/14/92 83/21/92 93/21/92 94/14/92
f 25/1/93 26/1/93 100/1/93 99/1/93
f 99/1/93 100/1/93 102/1/93 101/1/93
f 100/1/93 26/1/93 103/1/93 104/1/93
f 100/1/93 104/1/93 106/1/93 105/1/93
f 11/1/94 17/1/94 108/1/94 107/1/94
f 107/1/95 108/1/95 110/1/95 109/1/95
f 109/1/96 110/1/96 112/1/96 111/1/96
f 112/1/93 110/1/93 113/1/93 114/1/93
f 113/1/93 110/1/93 115/1/93 116/1/93
f 18/1/97 58/1/97 56/5/97 16/5/97
f 58/1/98 18/1/98 118/1/99 117/1/100
f 118/1/101 119/1/101 121/1/101 120/1/101
f 117/1/100 118/1/99 123/1/102 122/1/102
f 68/1/94 58/1/94 124/1/94 125/1/94
f 125/1/103 124/1/103 126/1/104 127/1/105
f 127/1/105 126/1/104 128/1/106 129/1/106
f 174/1/107 190/1/107 182/1/108 142/1/108
f 139/2/109 153/2/109 151/3/109 137/3/109
f 173/4/110 172/6/110 135/5/110 137/3/110
f 163/1/111 189/1/112 186/1/113 146/1/113
f 138/7/8 140/10/8 134/9/8 136/8/8
f 170/1/114 176/1/115 153/1/116 139/1/116
f 137/3/117 135/5/117 141/11/117 139/2/117
f 158/12/118 159/15/118 132/14/118 133/13/118
f 172/6/119 175/16/120 145/5/121 135/5/121
f 135/5/17 145/5/17 147/11/17 141/11/17
f 171/1/122 174/1/122 142/1/123 131/1/124
f 159/15/125 162/17/125 143/14/125 132/14/125
f 160/1/126 163/1/127 146/1/128 140/1/128
f 140/10/25 146/10/25 144/9/25 134/9/25
f 173/4/129 177/18/129 149/13/129 133/13/129
f 136/8/27 150/8/27 152/7/27 138/7/27
f 161/1/130 165/1/130 148/1/130 130/1/130
f 158/12/131 164/12/131 150/8/131 136/8/131
f 180/1/93 157/1/93 167/1/93 178/1/93
f 152/1/93 180/1/93 178/1/93 165/1/93
f 165/1/93 178/1/93 181/1/93 148/1/93
f 181/1/93 156/1/93 168/1/93 169/1/93
f 169/1/93 168/1/93 166/1/93 179/1/93
f 148/1/93 181/1/93 169/1/93 176/1/93
f 133/13/132 149/13/132 164/12/132 158/12/132
f 138/1/130 152/1/130 165/1/130 161/1/130
f 178/1/93 167/1/93 156/1/93 181/1/93
f 131/1/124 142/1/123 163/1/127 160/1/126
f 134/9/133 144/9/133 162/17/133 159/15/133
f 136/8/134 134/9/134 159/15/134 158/12/134
f 146/10/34 186/10/34 184/9/34 144/9/34
f 176/1/93 169/1/93 179/1/93 153/1/93
f 137/3/135 151/3/135 177/18/135 173/4/135
f 141/1/136 147/1/136 174/1/136 171/1/136
f 132/14/137 143/14/137 175/16/120 172/6/119
f 130/1/138 148/1/138 176/1/115 170/1/114
f 142/1/108 182/1/108 189/1/112 163/1/111
f 133/13/139 132/14/139 172/6/139 173/4/139
f 191/16/140 201/16/141 195/5/142 185/5/142
f 183/14/143 193/14/143 201/16/141 191/16/140
f 188/17/144 198/17/144 193/14/144 183/14/144
f 187/1/145 197/1/146 200/1/147 190/1/145
f 147/1/148 187/1/148 190/1/148 174/1/148
f 143/14/149 183/14/149 191/16/149 175/16/149
f 162/17/150 188/17/151 183/14/152 143/14/152
f 144/9/153 184/9/153 188/17/151 162/17/150
f 175/16/154 191/16/154 185/5/154 145/5/154
f 147/1/155 247/1/156 248/1/157 141/1/155
f 194/9/158 204/9/158 208/17/158 198/17/158
f 201/16/159 211/16/159 205/5/159 195/5/159
f 193/14/160 203/14/160 211/16/160 201/16/160
f 198/17/161 208/17/161 203/14/161 193/14/161
f 184/9/162 194/9/162 198/17/162 188/17/162
f 182/1/93 192/1/93 199/1/93 189/1/93
f 185/5/61 195/5/61 197/11/61 187/11/61
f 186/10/62 196/10/62 194/9/62 184/9/62
f 189/1/93 199/1/93 196/1/93 186/1/93
f 190/1/93 200/1/93 192/1/93 182/1/93
f 202/1/163 212/1/163 219/1/164 209/1/165
f 204/9/166 214/9/166 218/17/166 208/17/166
f 211/16/167 221/16/167 215/5/167 205/5/167
f 203/14/168 213/14/168 221/16/168 211/16/168
f 192/1/169 202/1/169 209/1/170 199/1/170
f 195/5/71 205/5/71 207/11/71 197/11/71
f 196/10/72 206/10/72 204/9/72 194/9/72
f 199/1/171 209/1/171 206/1/171 196/1/171
f 200/1/172 210/1/172 202/1/169 192/1/169
f 197/1/146 207/1/173 210/1/173 200/1/147
f 214/9/174 224/9/174 226/17/174 218/17/174
f 221/16/175 220/20/175 217/19/175 215/5/175
f 218/17/176 226/17/176 223/14/176 213/14/176
f 213/14/177 212/21/177 220/20/177 221/16/177
f 205/5/80 215/5/80 217/11/80 207/11/80
f 206/10/81 216/10/81 214/9/81 204/9/81
f 209/1/165 219/1/164 216/1/178 206/1/178
f 210/1/93 220/1/93 212/1/93 202/1/93
f 207/1/179 217/1/179 220/1/179 210/1/179
f 208/17/180 218/17/180 213/14/180 203/14/180
f 226/17/85 227/22/85 222/21/85 223/14/85
f 224/9/86 225/23/86 227/22/86 226/17/86
f 212/1/181 222/1/181 227/1/182 219/1/183
f 219/1/183 227/1/182 225/1/184 216/1/184
f 216/10/91 225/10/91 224/9/91 214/9/91
f 213/14/92 223/14/92 222/21/92 212/21/92
f 154/1/30 228/1/30 229/1/30 155/1/30
f 228/1/30 230/1/30 231/1/30 229/1/30
f 229/1/30 233/1/30 232/1/30 155/1/30
f 229/1/30 234/1/30 235/1/30 233/1/30
f 140/1/94 236/1/94 237/1/94 146/1/94
f 236/1/185 238/1/185 239/1/185 237/1/185
f 238/1/186 240/1/186 241/1/186 239/1/186
f 241/1/30 243/1/30 242/1/30 239/1/30
f 242/1/30 245/1/30 244/1/30 239/1/30
f 147/1/97 145/5/97 185/5/97 187/1/97
f 187/1/187 246/1/187 247/1/187 147/1/187
f 247/1/156 249/1/188 250/1/188 248/1/157
f 246/1/189 251/1/189 252/1/189 247/1/189
f 197/1/94 254/1/94 253/1/94 187/1/94
f 254/1/190 256/1/191 255/1/192 253/1/190
f 256/1/191 258/1/193 257/1/193 255/1/192
