# Blender 4.0.2
# www.blender.org
mtllib Fish6.mtl
o Cube.009
v 0.002000 0.002994 -0.493736
v 0.002000 0.002994 -0.393571
v 0.042201 0.002994 -0.393571
v 0.019407 0.002994 -0.493736
v 0.022554 -0.047089 -0.393571
v 0.022554 0.060064 -0.397064
v 0.022554 -0.047089 -0.493736
v 0.022554 0.057444 -0.493736
v -0.000846 -0.047089 -0.493736
v -0.001921 0.057444 -0.493736
v -0.000296 -0.047089 -0.393571
v 0.000063 0.060064 -0.397064
v 0.002000 -0.001373 -0.563608
v 0.002104 -0.001373 -0.563608
v 0.003301 -0.072417 -0.525178
v 0.003301 0.082772 -0.539153
v 0.002000 -0.072417 -0.525178
v 0.002000 0.082772 -0.539153
v -0.005306 0.005456 -0.271367
v 0.056569 0.005456 -0.271367
v 0.026329 -0.110059 -0.278354
v 0.026329 0.093296 -0.276745
v -0.005306 -0.110059 -0.278354
v -0.005306 0.093296 -0.276745
v -0.013651 0.012347 -0.135559
v 0.072982 0.012347 -0.135559
v 0.030641 -0.150961 -0.161761
v 0.030641 0.135334 -0.143088
v -0.013651 -0.150961 -0.161761
v -0.013651 0.135334 -0.143088
v -0.013651 0.006753 -0.021443
v 0.072982 0.006753 -0.021443
v 0.030641 -0.181883 -0.040658
v 0.030641 0.154196 -0.021984
v -0.013651 -0.181883 -0.040658
v -0.013651 0.154196 -0.021984
v -0.013651 -0.003059 0.099811
v 0.072982 -0.003059 0.099811
v 0.030641 -0.194798 0.064079
v 0.030641 0.164004 0.120399
v -0.013651 -0.194798 0.064079
v -0.013651 0.164004 0.120399
v -0.013651 -0.026800 0.253327
v 0.072982 -0.026800 0.253327
v 0.030641 -0.197157 0.196213
v 0.030641 0.160386 0.252534
v -0.013651 -0.197157 0.196213
v -0.013651 0.160386 0.252534
v -0.013651 -0.047995 0.384979
v 0.072982 -0.047995 0.384979
v 0.030641 -0.195714 0.311516
v 0.030641 0.139191 0.384186
v -0.013651 -0.195714 0.311516
v -0.013651 0.139191 0.384186
v -0.013651 -0.050834 0.509624
v 0.072982 -0.050834 0.509624
v 0.030641 -0.156678 0.509416
v 0.030641 0.102765 0.530773
v -0.013651 -0.156678 0.509416
v -0.013651 0.102765 0.530773
v -0.013651 -0.053181 0.644987
v 0.065786 -0.053181 0.644987
v 0.030641 -0.125545 0.623672
v 0.030641 0.054564 0.645029
v -0.013651 -0.125545 0.623672
v -0.013651 0.054564 0.645029
v -0.013651 -0.057743 0.660017
v 0.051728 -0.057743 0.660017
v 0.030641 -0.094443 0.704208
v 0.030641 -0.001674 0.735026
v -0.013651 -0.094443 0.704208
v -0.013651 -0.001674 0.735026
v -0.013651 -0.055515 0.745001
v 0.030235 -0.055515 0.745001
v 0.014094 -0.076930 0.749160
v -0.013651 -0.076930 0.749160
v 0.000060 0.264129 0.005269
v -0.000199 0.161122 0.148117
v 0.000070 0.262673 -0.031123
v 0.005589 0.162699 0.108187
v 0.000070 0.262673 -0.031123
v 0.005589 0.162699 0.108187
v 0.000070 0.262673 -0.031123
v 0.005589 0.162699 0.108187
v 0.005589 0.162699 0.108187
v 0.000059 0.212129 -0.044265
v 0.005589 0.155117 0.008615
v 0.005589 0.155117 0.008615
v 0.000155 0.169672 -0.066504
v 0.000096 0.143998 -0.077311
v 0.000155 0.169672 -0.066504
v 0.000096 0.143998 -0.077311
v 0.000309 -0.062324 -0.420060
v 0.000309 -0.159516 -0.309195
v 0.000309 -0.051406 -0.383668
v 0.000309 -0.114390 -0.264797
v 0.000309 -0.186446 -0.309923
v 0.000309 -0.144231 -0.181095
v -0.000265 -0.240594 -0.095214
v -0.000265 -0.189652 0.030418
v -0.000265 -0.238847 -0.133644
v -0.000265 -0.170437 -0.090112
v 0.000382 -0.001373 -0.670765
v 0.000382 -0.162972 -0.685158
v 0.000060 0.179364 -0.696114
v 0.000382 -0.116076 -0.714533
v 0.000382 -0.184101 -0.754584
v 0.000382 0.069561 -0.703968
v 0.000076 0.188419 -0.754975
v -0.002000 0.002994 -0.493736
v -0.002000 0.002994 -0.393571
v -0.042201 0.002994 -0.393571
v -0.019407 0.002994 -0.493736
v -0.022554 -0.047089 -0.393571
v -0.022554 0.060064 -0.397064
v -0.022554 -0.047089 -0.493736
v -0.022554 0.057444 -0.493736
v 0.000846 -0.047089 -0.493736
v 0.001921 0.057444 -0.493736
v 0.000296 -0.047089 -0.393571
v -0.000063 0.060064 -0.397064
v -0.002000 -0.001373 -0.563608
v -0.002104 -0.001373 -0.563608
v -0.003301 -0.072417 -0.525178
v -0.003301 0.082772 -0.539153
v -0.002000 -0.072417 -0.525178
v -0.002000 0.082772 -0.539153
v 0.005306 0.005456 -0.271367
v -0.056569 0.005456 -0.271367
v -0.026329 -0.110059 -0.278354
v -0.026329 0.093296 -0.276745
v 0.005306 -0.110059 -0.278354
v 0.005306 0.093296 -0.276745
v 0.013651 0.012347 -0.135559
v -0.072982 0.012347 -0.135559
v -0.030641 -0.150961 -0.161761
v -0.030641 0.135334 -0.143088
v 0.013651 -0.150961 -0.161761
v 0.013651 0.135334 -0.143088
v 0.013651 0.006753 -0.021443
v -0.072982 0.006753 -0.021443
v -0.030641 -0.181883 -0.040658
v -0.030641 0.154196 -0.021984
v 0.013651 -0.181883 -0.040658
v 0.013651 0.154196 -0.021984
v 0.013651 -0.003059 0.099811
v -0.072982 -0.003059 0.099811
v -0.030641 -0.194798 0.064079
v -0.030641 0.164004 0.120399
v 0.013651 -0.194798 0.064079
v 0.013651 0.164004 0.120399
v 0.013651 -0.026800 0.253327
v -0.072982 -0.026800 0.253327
v -0.030641 -0.197157 0.196213
v -0.030641 0.160386 0.252534
v 0.013651 -0.197157 0.196213
v 0.013651 0.160386 0.252534
v 0.013651 -0.047995 0.384979
v -0.072982 -0.047995 0.384979
v -0.030641 -0.195714 0.311516
v -0.030641 0.139191 0.384186
v 0.013651 -0.195714 0.311516
v 0.013651 0.139191 0.384186
v 0.013651 -0.050834 0.509624
v -0.072982 -0.050834 0.509624
v -0.030641 -0.156678 0.509416
v -0.030641 0.102765 0.530773
v 0.013651 -0.156678 0.509416
v 0.013651 0.102765 0.530773
v 0.013651 -0.053181 0.644987
v -0.065786 -0.053181 0.644987
v -0.030641 -0.125545 0.623672
v -0.030641 0.054564 0.645029
v 0.013651 -0.125545 0.623672
v 0.013651 0.054564 0.645029
v 0.013651 -0.057743 0.660017
v -0.051728 -0.057743 0.660017
v -0.030641 -0.094443 0.704208
v -0.030641 -0.001674 0.735026
v 0.013651 -0.094443 0.704208
v 0.013651 -0.001674 0.735026
v 0.013651 -0.055515 0.745001
v -0.030235 -0.055515 0.745001
v -0.014094 -0.076930 0.749160
v 0.013651 -0.076930 0.749160
v -0.000060 0.264129 0.005269
v 0.000199 0.161122 0.148117
v -0.000070 0.262673 -0.031123
v -0.005589 0.162699 0.108187
v -0.000070 0.262673 -0.031123
v -0.005589 0.162699 0.108187
v -0.000070 0.262673 -0.031123
v -0.005589 0.162699 0.108187
v -0.005589 0.162699 0.108187
v -0.000059 0.212129 -0.044265
v -0.005589 0.155117 0.008615
v -0.005589 0.155117 0.008615
v -0.000155 0.169672 -0.066504
v -0.000096 0.143998 -0.077311
v -0.000155 0.169672 -0.066504
v -0.000096 0.143998 -0.077311
v -0.000309 -0.062324 -0.420060
v -0.000309 -0.159516 -0.309195
v -0.000309 -0.051406 -0.383668
v -0.000309 -0.114390 -0.264797
v -0.000309 -0.186446 -0.309923
v -0.000309 -0.144231 -0.181095
v 0.000265 -0.240594 -0.095214
v 0.000265 -0.189652 0.030418
v 0.000265 -0.238847 -0.133644
v 0.000265 -0.170437 -0.090112
v -0.000382 -0.001373 -0.670765
v -0.000382 -0.162972 -0.685158
v -0.000060 0.179364 -0.696114
v -0.000382 -0.116076 -0.714533
v -0.000382 -0.184101 -0.754584
v -0.000382 0.069561 -0.703968
v -0.000076 0.188419 -0.754975
vn -0.0000 -0.7788 0.6273
vn 0.9831 0.1418 -0.1157
vn -0.0000 -1.0000 -0.0000
vn 0.9542 0.0227 -0.2984
vn -0.0000 0.9996 -0.0271
vn 0.9805 -0.1615 -0.1116
vn -0.0000 0.9639 -0.2662
vn -0.0000 -0.8775 -0.4796
vn -0.0000 0.2791 -0.9603
vn -0.0000 -0.4758 -0.8796
vn -0.9994 0.0133 -0.0320
vn 0.9447 -0.0679 -0.3209
vn -0.9990 -0.0216 -0.0379
vn -0.0000 0.8734 0.4871
vn -0.0000 -0.9436 -0.3310
vn 0.9412 0.3168 -0.1173
vn 0.9412 0.3168 -0.1178
vn 0.9400 0.3157 -0.1296
vn 0.9412 0.3169 -0.1171
vn -0.9986 -0.0164 -0.0498
vn 0.9492 -0.2799 -0.1439
vn -0.9987 0.0159 -0.0478
vn 0.9727 -0.2294 -0.0356
vn -1.0000 -0.0000 -0.0000
vn -0.0000 0.9539 -0.3000
vn -0.9981 -0.0037 -0.0611
vn -0.9981 -0.0036 -0.0612
vn -0.9979 0.0074 -0.0648
vn 0.9649 -0.2379 -0.1113
vn -0.9979 0.0077 -0.0649
vn -0.0000 0.9976 -0.0687
vn -0.0000 -0.9925 -0.1224
vn 0.9543 0.2983 -0.0168
vn -0.0000 -0.9689 -0.2474
vn -0.0000 0.9881 -0.1539
vn 0.9747 -0.2224 -0.0204
vn 0.9765 -0.2144 -0.0215
vn 0.9747 -0.2227 -0.0204
vn 0.9765 -0.2143 -0.0215
vn 0.9656 0.2600 -0.0000
vn -0.0000 0.9873 0.1589
vn 0.9726 0.2313 0.0221
vn -0.0000 -0.9998 -0.0179
vn -0.0000 0.9996 0.0274
vn 0.9704 0.2391 0.0346
vn 0.9682 -0.2496 -0.0200
vn 0.9747 0.2206 0.0355
vn -0.0000 -0.9999 0.0125
vn -0.0000 0.9214 0.3887
vn -0.0000 -0.9811 0.1935
vn -0.0000 0.9705 0.2412
vn 0.9446 -0.3261 0.0366
vn 0.9454 0.2107 0.2485
vn 0.9114 -0.4051 0.0730
vn 0.9572 0.2770 0.0837
vn -0.0000 -0.9648 0.2629
vn -0.0000 -0.8010 0.5987
vn 0.8965 -0.3160 0.3105
vn -0.0000 -0.9329 0.3603
vn -0.0000 -0.9318 0.3629
vn -0.0000 -0.9323 0.3616
vn -0.0000 0.8480 0.5299
vn 0.8821 -0.4041 0.2420
vn -0.0000 0.1907 0.9817
vn -0.0000 -0.9318 0.3630
vn -0.0000 0.9997 -0.0262
vn 0.9886 0.1303 0.0753
vn -0.0000 1.0000 -0.0000
vn 0.9988 0.0430 -0.0223
vn 0.9973 0.0325 -0.0659
vn 1.0000 -0.0000 -0.0000
vn -0.9999 0.0012 0.0117
vn -0.9999 0.0001 0.0123
vn -1.0000 -0.0000 0.0047
vn -0.9999 0.0010 0.0100
vn -0.9999 -0.0012 0.0130
vn -1.0000 -0.0027 -0.0026
vn -0.9831 0.1418 -0.1157
vn -0.9542 0.0227 -0.2984
vn -0.9805 -0.1615 -0.1116
vn 0.9994 0.0133 -0.0320
vn -0.9447 -0.0679 -0.3209
vn 0.9990 -0.0216 -0.0379
vn -0.9412 0.3168 -0.1173
vn -0.9400 0.3157 -0.1296
vn -0.9412 0.3168 -0.1178
vn -0.9412 0.3169 -0.1171
vn 0.9986 -0.0164 -0.0498
vn -0.9492 -0.2799 -0.1439
vn 0.9987 0.0159 -0.0478
vn -0.9727 -0.2294 -0.0356
vn 0.9981 -0.0037 -0.0611
vn 0.9979 0.0074 -0.0648
vn 0.9981 -0.0036 -0.0612
vn -0.9649 -0.2379 -0.1113
vn 0.9979 0.0077 -0.0649
vn -0.9543 0.2983 -0.0168
vn -0.9747 -0.2224 -0.0204
vn -0.9747 -0.2227 -0.0204
vn -0.9765 -0.2144 -0.0215
vn -0.9765 -0.2143 -0.0215
vn -0.9656 0.2600 -0.0000
vn -0.9726 0.2313 0.0221
vn -0.9704 0.2391 0.0346
vn -0.9682 -0.2496 -0.0200
vn -0.9747 0.2206 0.0355
vn -0.9446 -0.3261 0.0366
vn -0.9454 0.2107 0.2485
vn -0.9114 -0.4051 0.0730
vn -0.9572 0.2770 0.0837
vn -0.8965 -0.3160 0.3105
vn -0.8821 -0.4041 0.2420
vn -0.9886 0.1303 0.0753
vn -0.9988 0.0430 -0.0223
vn -0.9973 0.0325 -0.0659
vn 0.9999 0.0012 0.0117
vn 0.9999 0.0010 0.0100
vn 1.0000 -0.0000 0.0047
vn 0.9999 0.0001 0.0123
vn 0.9999 -0.0012 0.0130
vn 1.0000 -0.0027 -0.0026
vt 0.375000 0.500000
vt 0.250000 0.500000
vt 0.500000 0.500000
vt 0.625000 0.500000
vt 0.625000 0.750000
vt 0.500000 0.750000
vt 0.375000 0.750000
vt 0.250000 0.750000
vt 0.750000 0.500000
vt 0.750000 0.750000
vt 0.500000 0.375000
vt 0.625000 0.375000
vt 0.375000 0.375000
vt 0.000000 0.000000
vt 0.625000 0.875000
vt 0.500000 0.875000
vt 0.375000 0.875000
s 1
usemtl Material.015
f 7/1/1 9/2/1 17/2/1 15/1/1
f 4/3/2 8/4/2 6/5/2 3/6/2
f 9/2/3 7/1/3 5/7/3 11/8/3
f 8/4/4 4/3/4 14/3/4 16/4/4
f 8/4/5 10/9/5 12/10/5 6/5/5
f 7/1/6 4/3/6 3/6/6 5/7/6
f 6/5/7 12/10/7 24/10/7 22/5/7
f 11/8/8 5/7/8 21/7/8 23/8/8
f 13/11/9 18/12/9 16/4/9 14/3/9
f 17/13/10 13/11/10 14/3/10 15/1/10
f 9/14/11 1/14/11 13/14/11 17/14/11
f 4/3/12 7/1/12 15/1/12 14/3/12
f 1/14/13 10/14/13 18/14/13 13/14/13
f 10/9/14 8/4/14 16/4/14 18/9/14
f 23/8/15 21/7/15 27/7/15 29/8/15
f 20/6/16 22/5/17 28/5/18 26/6/18
f 3/6/19 6/5/19 22/5/17 20/6/16
f 12/14/20 2/14/20 19/14/20 24/14/20
f 5/7/21 3/6/21 20/6/21 21/7/21
f 2/14/22 11/14/22 23/14/22 19/14/22
f 27/7/23 26/6/23 32/6/23 33/7/23
f 30/14/24 25/14/24 31/14/24 36/14/24
f 22/5/25 24/10/25 30/10/25 28/5/25
f 24/14/26 19/14/27 25/14/28 30/14/26
f 21/7/29 20/6/29 26/6/29 27/7/29
f 19/14/27 23/14/30 29/14/30 25/14/28
f 34/5/31 36/10/31 42/10/31 40/5/31
f 35/8/32 33/7/32 39/7/32 41/8/32
f 25/14/24 29/14/24 35/14/24 31/14/24
f 26/6/33 28/5/33 34/5/33 32/6/33
f 29/8/34 27/7/34 33/7/34 35/8/34
f 28/5/35 30/10/35 36/10/35 34/5/35
f 37/14/24 41/14/24 47/14/24 43/14/24
f 39/7/36 38/6/37 44/6/38 45/7/38
f 36/14/24 31/14/24 37/14/24 42/14/24
f 33/7/39 32/6/39 38/6/37 39/7/36
f 31/14/24 35/14/24 41/14/24 37/14/24
f 32/6/40 34/5/40 40/5/40 38/6/40
f 48/14/24 43/14/24 49/14/24 54/14/24
f 46/5/41 48/10/41 54/10/41 52/5/41
f 38/6/42 40/5/42 46/5/42 44/6/42
f 41/8/43 39/7/43 45/7/43 47/8/43
f 40/5/44 42/10/44 48/10/44 46/5/44
f 42/14/24 37/14/24 43/14/24 48/14/24
f 50/6/45 52/5/45 58/5/45 56/6/45
f 49/14/24 53/14/24 59/14/24 55/14/24
f 45/7/46 44/6/46 50/6/46 51/7/46
f 43/14/24 47/14/24 53/14/24 49/14/24
f 44/6/47 46/5/47 52/5/47 50/6/47
f 47/8/48 45/7/48 51/7/48 53/8/48
f 60/14/24 55/14/24 61/14/24 66/14/24
f 58/5/49 60/10/49 66/10/49 64/5/49
f 53/8/50 51/7/50 57/7/50 59/8/50
f 52/5/51 54/10/51 60/10/51 58/5/51
f 54/14/24 49/14/24 55/14/24 60/14/24
f 51/7/52 50/6/52 56/6/52 57/7/52
f 62/6/53 64/5/53 70/5/53 68/6/53
f 61/14/24 65/14/24 71/14/24 67/14/24
f 57/7/54 56/6/54 62/6/54 63/7/54
f 55/14/24 59/14/24 65/14/24 61/14/24
f 56/6/55 58/5/55 64/5/55 62/6/55
f 59/8/56 57/7/56 63/7/56 65/8/56
f 68/6/57 70/5/57 72/15/57 67/16/57
f 69/7/58 68/6/58 74/6/58 75/7/58
f 65/8/59 63/7/59 69/7/60 71/8/61
f 64/5/62 66/10/62 72/10/62 70/5/62
f 66/14/24 61/14/24 67/14/24 72/14/24
f 63/7/63 62/6/63 68/6/63 69/7/63
f 75/7/64 74/6/64 73/16/64 76/17/64
f 67/14/24 71/14/24 76/14/24 73/14/24
f 71/8/61 69/7/60 75/7/65 76/8/65
f 68/6/66 67/16/66 73/16/66 74/6/66
f 77/14/67 78/14/67 80/14/67 79/14/67
f 80/14/68 82/14/68 85/14/68 84/14/68
f 84/14/68 85/14/68 88/14/68 87/14/68
f 79/14/68 80/14/68 84/14/68 83/14/68
f 83/14/69 84/14/69 87/14/69 86/14/69
f 89/14/68 90/14/68 92/14/68 91/14/68
f 87/14/68 88/14/68 92/14/68 90/14/68
f 86/14/70 87/14/70 90/14/70 89/14/70
f 94/14/71 93/14/71 95/14/71 96/14/71
f 94/14/71 96/14/71 98/14/71 97/14/71
f 99/14/24 100/14/24 102/14/24 101/14/24
f 17/13/72 13/11/73 103/11/74 104/13/75
f 13/11/73 18/12/76 105/12/76 103/11/74
f 104/13/75 103/11/74 106/11/24 107/13/24
f 103/11/77 105/12/77 109/12/77 108/11/77
f 116/1/1 124/1/1 126/2/1 118/2/1
f 113/3/78 112/6/78 115/5/78 117/4/78
f 118/2/3 120/8/3 114/7/3 116/1/3
f 117/4/79 125/4/79 123/3/79 113/3/79
f 117/4/5 115/5/5 121/10/5 119/9/5
f 116/1/80 114/7/80 112/6/80 113/3/80
f 115/5/7 131/5/7 133/10/7 121/10/7
f 120/8/8 132/8/8 130/7/8 114/7/8
f 122/11/9 123/3/9 125/4/9 127/12/9
f 126/13/10 124/1/10 123/3/10 122/11/10
f 118/14/81 126/14/81 122/14/81 110/14/81
f 113/3/82 123/3/82 124/1/82 116/1/82
f 110/14/83 122/14/83 127/14/83 119/14/83
f 119/9/14 127/9/14 125/4/14 117/4/14
f 132/8/15 138/8/15 136/7/15 130/7/15
f 129/6/84 135/6/85 137/5/85 131/5/86
f 112/6/87 129/6/84 131/5/86 115/5/87
f 121/14/88 133/14/88 128/14/88 111/14/88
f 114/7/89 130/7/89 129/6/89 112/6/89
f 111/14/90 128/14/90 132/14/90 120/14/90
f 136/7/91 142/7/91 141/6/91 135/6/91
f 139/14/71 145/14/71 140/14/71 134/14/71
f 131/5/25 137/5/25 139/10/25 133/10/25
f 133/14/92 139/14/92 134/14/93 128/14/94
f 130/7/95 136/7/95 135/6/95 129/6/95
f 128/14/94 134/14/93 138/14/96 132/14/96
f 143/5/31 149/5/31 151/10/31 145/10/31
f 144/8/32 150/8/32 148/7/32 142/7/32
f 134/14/71 140/14/71 144/14/71 138/14/71
f 135/6/97 141/6/97 143/5/97 137/5/97
f 138/8/34 144/8/34 142/7/34 136/7/34
f 137/5/35 143/5/35 145/10/35 139/10/35
f 146/14/71 152/14/71 156/14/71 150/14/71
f 148/7/98 154/7/99 153/6/99 147/6/100
f 145/14/71 151/14/71 146/14/71 140/14/71
f 142/7/101 148/7/98 147/6/100 141/6/101
f 140/14/71 146/14/71 150/14/71 144/14/71
f 141/6/102 147/6/102 149/5/102 143/5/102
f 157/14/71 163/14/71 158/14/71 152/14/71
f 155/5/41 161/5/41 163/10/41 157/10/41
f 147/6/103 153/6/103 155/5/103 149/5/103
f 150/8/43 156/8/43 154/7/43 148/7/43
f 149/5/44 155/5/44 157/10/44 151/10/44
f 151/14/71 157/14/71 152/14/71 146/14/71
f 159/6/104 165/6/104 167/5/104 161/5/104
f 158/14/71 164/14/71 168/14/71 162/14/71
f 154/7/105 160/7/105 159/6/105 153/6/105
f 152/14/71 158/14/71 162/14/71 156/14/71
f 153/6/106 159/6/106 161/5/106 155/5/106
f 156/8/48 162/8/48 160/7/48 154/7/48
f 169/14/71 175/14/71 170/14/71 164/14/71
f 167/5/49 173/5/49 175/10/49 169/10/49
f 162/8/50 168/8/50 166/7/50 160/7/50
f 161/5/51 167/5/51 169/10/51 163/10/51
f 163/14/71 169/14/71 164/14/71 158/14/71
f 160/7/107 166/7/107 165/6/107 159/6/107
f 171/6/108 177/6/108 179/5/108 173/5/108
f 170/14/71 176/14/71 180/14/71 174/14/71
f 166/7/109 172/7/109 171/6/109 165/6/109
f 164/14/71 170/14/71 174/14/71 168/14/71
f 165/6/110 171/6/110 173/5/110 167/5/110
f 168/8/56 174/8/56 172/7/56 166/7/56
f 177/6/57 176/16/57 181/15/57 179/5/57
f 178/7/111 184/7/111 183/6/111 177/6/111
f 174/8/59 180/8/61 178/7/60 172/7/59
f 173/5/62 179/5/62 181/10/62 175/10/62
f 175/14/71 181/14/71 176/14/71 170/14/71
f 172/7/112 178/7/112 177/6/112 171/6/112
f 184/7/64 185/17/64 182/16/64 183/6/64
f 176/14/71 182/14/71 185/14/71 180/14/71
f 180/8/61 185/8/65 184/7/65 178/7/60
f 177/6/66 183/6/66 182/16/66 176/16/66
f 186/14/113 188/14/113 189/14/113 187/14/113
f 189/14/68 193/14/68 194/14/68 191/14/68
f 193/14/68 196/14/68 197/14/68 194/14/68
f 188/14/68 192/14/68 193/14/68 189/14/68
f 192/14/114 195/14/114 196/14/114 193/14/114
f 198/14/68 200/14/68 201/14/68 199/14/68
f 196/14/68 199/14/68 201/14/68 197/14/68
f 195/14/115 198/14/115 199/14/115 196/14/115
f 203/14/24 205/14/24 204/14/24 202/14/24
f 203/14/24 206/14/24 207/14/24 205/14/24
f 208/14/71 210/14/71 211/14/71 209/14/71
f 126/13/116 213/13/117 212/11/118 122/11/119
f 122/11/119 212/11/118 214/12/120 127/12/120
f 213/13/117 216/13/71 215/11/71 212/11/118
f 212/11/121 217/11/121 218/12/121 214/12/121
