# Blender 4.0.2
# www.blender.org
mtllib Fish5.mtl
o Cube
v -0.033515 -0.063511 -0.275082
v -0.027837 0.084307 -0.275082
v -0.004378 -0.007509 -0.498111
v -0.004378 0.038846 -0.498111
v 0.001031 0.015668 -0.493645
v 0.010585 0.007629 -0.275082
v -0.006496 0.015668 -0.493645
v -0.034239 0.007629 -0.275082
v 0.001031 -0.007509 -0.498111
v 0.001031 0.038846 -0.498111
v 0.019438 -0.063511 -0.275082
v 0.004907 0.084307 -0.275082
v -0.040924 -0.103605 -0.099120
v -0.033908 0.132009 -0.099120
v -0.011819 0.006452 -0.099120
v -0.059083 0.006452 -0.099120
v -0.000928 -0.103605 -0.099120
v -0.000249 0.132009 -0.099120
v -0.040924 -0.103605 -0.099120
v -0.035040 0.132009 -0.099120
v -0.011819 0.006452 -0.099120
v -0.059083 0.006452 -0.099120
v -0.000968 -0.103605 -0.099120
v -0.000249 0.132009 -0.099120
v -0.072642 -0.110036 0.066038
v -0.042950 0.169053 0.066038
v -0.000429 0.006452 0.066038
v -0.085711 0.006452 0.066038
v -0.000429 -0.110036 0.066038
v -0.000429 0.169053 0.066038
v -0.072642 -0.110036 0.183347
v -0.038425 0.201468 0.183347
v -0.000429 0.006452 0.183347
v -0.096414 0.006452 0.183347
v -0.000429 -0.110036 0.183347
v -0.000429 0.201468 0.183347
v -0.072642 -0.097688 0.325351
v -0.038425 0.179858 0.325351
v -0.000429 0.006452 0.325351
v -0.093976 0.006452 0.325351
v -0.000429 -0.097688 0.325351
v -0.000429 0.179858 0.325351
v -0.072642 -0.082253 0.391723
v -0.046862 0.124291 0.391723
v -0.000429 0.006452 0.391723
v -0.077671 0.006452 0.391723
v -0.000429 -0.082253 0.391723
v -0.000429 0.124291 0.391723
v -0.047108 -0.065274 0.439573
v -0.038830 0.083590 0.439573
v -0.002077 0.010107 0.439573
v -0.064736 0.010107 0.439573
v -0.002077 -0.065274 0.439573
v 0.000232 0.083590 0.439573
v -0.021168 -0.028120 0.518293
v -0.021168 0.043690 0.518293
v -0.000379 0.009767 0.518293
v -0.029306 0.009767 0.518293
v -0.000379 -0.028120 0.518293
v -0.000379 0.043690 0.518293
v 0.001031 0.015361 -0.578868
v 0.001031 -0.174396 -0.608891
v 0.000376 -0.113298 -0.639020
v 0.001031 -0.251573 -0.686067
v 0.000026 -0.248874 -0.739023
v 0.000148 -0.283212 -0.750707
v 0.004351 0.017210 -0.493262
v 0.000257 0.039821 -0.497657
v 0.000971 0.015047 -0.579633
v 0.000070 0.207206 -0.611576
v -0.000653 0.146185 -0.641498
v 0.000334 0.284380 -0.688721
v -0.000095 0.281727 -0.741537
v -0.000178 0.316046 -0.753264
v -0.000429 0.243935 0.235952
v -0.000429 0.240293 0.307475
v -0.000429 0.290241 0.241097
v -0.000429 0.286599 0.290753
v -0.000429 0.345283 0.237278
v -0.000429 0.344749 0.245694
v -0.000429 -0.194151 0.092355
v -0.000429 -0.196290 0.094259
v -0.000429 -0.153301 0.197479
v -0.000429 -0.159601 0.203085
v -0.000429 -0.091518 0.320301
v -0.000429 -0.097818 0.325906
v -0.015201 -0.006652 0.596541
v -0.015201 0.046153 0.596541
v 0.000086 0.021208 0.574389
v -0.021185 0.021208 0.574389
v 0.000086 -0.006652 0.596541
v 0.000086 0.046153 0.596541
v -0.002750 0.035991 0.828071
v 0.000081 0.031371 0.828071
v -0.003858 0.031371 0.828071
v 0.000081 0.035991 0.828071
v -0.000209 -0.214945 -0.201680
v -0.000209 -0.221245 -0.196074
v -0.000361 -0.164596 -0.173843
v -0.000028 -0.190060 -0.151185
v 0.000289 -0.154909 -0.111898
v -0.001699 -0.129445 -0.134557
v -0.001699 -0.099081 -0.055037
v -0.001699 -0.097913 -0.099923
v 0.000106 -0.164596 -0.173843
v -0.001699 -0.129445 -0.134557
v -0.000272 -0.125862 -0.184677
v -0.001699 -0.090210 -0.145693
v -0.001699 -0.099291 -0.101388
v -0.001699 -0.092794 -0.141816
v -0.000527 -0.098005 -0.221101
v -0.001699 -0.084466 -0.180777
v -0.000242 -0.081205 -0.255994
v -0.001699 -0.067666 -0.215669
v 0.000081 -0.099302 -0.336380
v -0.000055 -0.084486 -0.355754
v -0.001699 -0.058982 -0.286756
v -0.001699 -0.052954 -0.319569
v 0.000103 -0.030122 -0.399558
v 0.000103 -0.037016 -0.380700
v -0.001699 0.074296 -0.320594
v 0.000137 0.099523 -0.353967
v -0.001699 0.070706 -0.339620
v -0.001699 0.059102 -0.382470
v 0.033515 -0.063511 -0.275082
v 0.027837 0.084307 -0.275082
v 0.004378 -0.007509 -0.498111
v 0.004378 0.038846 -0.498111
v -0.001031 0.015668 -0.493645
v -0.010585 0.007629 -0.275082
v 0.006496 0.015668 -0.493645
v 0.034239 0.007629 -0.275082
v -0.001031 -0.007509 -0.498111
v -0.001031 0.038846 -0.498111
v -0.019438 -0.063511 -0.275082
v -0.004907 0.084307 -0.275082
v 0.040924 -0.103605 -0.099120
v 0.033908 0.132009 -0.099120
v 0.011819 0.006452 -0.099120
v 0.059083 0.006452 -0.099120
v 0.000928 -0.103605 -0.099120
v 0.000249 0.132009 -0.099120
v 0.040924 -0.103605 -0.099120
v 0.035040 0.132009 -0.099120
v 0.011819 0.006452 -0.099120
v 0.059083 0.006452 -0.099120
v 0.000968 -0.103605 -0.099120
v 0.000249 0.132009 -0.099120
v 0.072642 -0.110036 0.066038
v 0.042950 0.169053 0.066038
v 0.000429 0.006452 0.066038
v 0.085711 0.006452 0.066038
v 0.000429 -0.110036 0.066038
v 0.000429 0.169053 0.066038
v 0.072642 -0.110036 0.183347
v 0.038425 0.201468 0.183347
v 0.000429 0.006452 0.183347
v 0.096414 0.006452 0.183347
v 0.000429 -0.110036 0.183347
v 0.000429 0.201468 0.183347
v 0.072642 -0.097688 0.325351
v 0.038425 0.179858 0.325351
v 0.000429 0.006452 0.325351
v 0.093976 0.006452 0.325351
v 0.000429 -0.097688 0.325351
v 0.000429 0.179858 0.325351
v 0.072642 -0.082253 0.391723
v 0.046862 0.124291 0.391723
v 0.000429 0.006452 0.391723
v 0.077671 0.006452 0.391723
v 0.000429 -0.082253 0.391723
v 0.000429 0.124291 0.391723
v 0.047108 -0.065274 0.439573
v 0.038830 0.083590 0.439573
v 0.002077 0.010107 0.439573
v 0.064736 0.010107 0.439573
v 0.002077 -0.065274 0.439573
v -0.000232 0.083590 0.439573
v 0.021168 -0.028120 0.518293
v 0.021168 0.043690 0.518293
v 0.000379 0.009767 0.518293
v 0.029306 0.009767 0.518293
v 0.000379 -0.028120 0.518293
v 0.000379 0.043690 0.518293
v -0.001031 0.015361 -0.578868
v -0.001031 -0.174396 -0.608891
v -0.000376 -0.113298 -0.639020
v -0.001031 -0.251573 -0.686067
v -0.000026 -0.248874 -0.739023
v -0.000148 -0.283212 -0.750707
v -0.004351 0.017210 -0.493262
v -0.000257 0.039821 -0.497657
v -0.000971 0.015047 -0.579633
v -0.000070 0.207206 -0.611576
v 0.000653 0.146185 -0.641498
v -0.000334 0.284380 -0.688721
v 0.000095 0.281727 -0.741537
v 0.000178 0.316046 -0.753264
v 0.000429 0.243935 0.235952
v 0.000429 0.240293 0.307475
v 0.000429 0.290241 0.241097
v 0.000429 0.286599 0.290753
v 0.000429 0.345283 0.237278
v 0.000429 0.344749 0.245694
v 0.000429 -0.194151 0.092355
v 0.000429 -0.196290 0.094259
v 0.000429 -0.153301 0.197479
v 0.000429 -0.159601 0.203085
v 0.000429 -0.091518 0.320301
v 0.000429 -0.097818 0.325906
v 0.015201 -0.006652 0.596541
v 0.015201 0.046153 0.596541
v -0.000086 0.021208 0.574389
v 0.021185 0.021208 0.574389
v -0.000086 -0.006652 0.596541
v -0.000086 0.046153 0.596541
v 0.002750 0.035991 0.828071
v -0.000081 0.031371 0.828071
v 0.003858 0.031371 0.828071
v -0.000081 0.035991 0.828071
v 0.000209 -0.214945 -0.201680
v 0.000209 -0.221245 -0.196074
v 0.000361 -0.164596 -0.173843
v 0.000028 -0.190060 -0.151185
v -0.000289 -0.154909 -0.111898
v 0.001699 -0.129445 -0.134557
v 0.001699 -0.099081 -0.055037
v 0.001699 -0.097913 -0.099923
v -0.000106 -0.164596 -0.173843
v 0.001699 -0.129445 -0.134557
v 0.000272 -0.125862 -0.184677
v 0.001699 -0.090210 -0.145693
v 0.001699 -0.099291 -0.101388
v 0.001699 -0.092794 -0.141816
v 0.000527 -0.098005 -0.221101
v 0.001699 -0.084466 -0.180777
v 0.000242 -0.081205 -0.255994
v 0.001699 -0.067666 -0.215669
v -0.000081 -0.099302 -0.336380
v 0.000055 -0.084486 -0.355754
v 0.001699 -0.058982 -0.286756
v 0.001699 -0.052954 -0.319569
v -0.000103 -0.030122 -0.399558
v -0.000103 -0.037016 -0.380700
v 0.001699 0.074296 -0.320594
v -0.000137 0.099523 -0.353967
v 0.001699 0.070706 -0.339620
v 0.001699 0.059102 -0.382470
vn -0.9895 0.0790 -0.1214
vn -0.9824 0.1534 -0.1066
vn -0.9911 -0.0236 -0.1311
vn -0.0000 0.9799 -0.1997
vn -0.9893 -0.1031 -0.1028
vn -0.0000 -0.9699 -0.2435
vn -0.0000 0.1892 -0.9819
vn -0.0000 -0.1892 -0.9819
vn -0.0000 1.0000 -0.0000
vn -0.0000 -0.0009 1.0000
vn -0.0000 0.9652 -0.2616
vn 0.9854 0.1074 0.1323
vn -0.0000 -0.9750 -0.2222
vn 0.9962 -0.0290 0.0819
vn -0.0000 0.9758 -0.2189
vn -0.9754 -0.1344 -0.1749
vn -0.0000 -0.0000 -1.0000
vn -0.0000 -1.0000 -0.0000
vn 1.0000 -0.0000 -0.0000
vn 0.9982 0.0478 -0.0351
vn -0.0000 -0.9992 -0.0389
vn 0.9988 -0.0401 -0.0294
vn -0.9664 0.2240 -0.1262
vn -0.0000 -0.9962 0.0866
vn -0.9606 0.2706 -0.0627
vn -0.9867 -0.1560 -0.0450
vn -0.0000 0.9639 -0.2663
vn -0.0000 0.7668 0.6419
vn -0.0000 0.7643 0.6449
vn -0.0000 0.7642 0.6449
vn -0.9552 0.2944 0.0306
vn -0.9796 -0.2003 0.0171
vn -0.0000 0.9886 0.1504
vn -0.9131 0.2707 0.3048
vn 0.9999 -0.0121 0.0056
vn -0.0000 -0.9740 0.2265
vn -0.9443 0.2800 0.1732
vn -0.9816 -0.1342 0.1362
vn -0.0000 -0.9043 0.4268
vn 0.9998 -0.0000 -0.0216
vn -0.9108 -0.1258 0.3932
vn -0.0000 0.7617 0.6479
vn 0.9994 -0.0000 0.0344
vn -0.0000 -0.9424 0.3344
vn -0.0000 0.9995 -0.0315
vn -0.9765 -0.1619 0.1421
vn 0.9997 -0.0215 -0.0124
vn -0.8855 0.2807 0.3703
vn -0.8952 -0.2036 0.3965
vn -0.0000 0.8920 0.4521
vn -1.0000 -0.0000 -0.0000
vn -0.9999 -0.0048 0.0120
vn -0.9998 -0.0108 0.0184
vn 0.9997 0.0235 0.0016
vn 0.9999 -0.0041 -0.0159
vn 0.9999 -0.0079 -0.0077
vn -0.0000 -0.9992 0.0400
vn -0.0000 0.6224 0.7827
vn 1.0000 -0.0022 -0.0064
vn 1.0000 0.0062 -0.0078
vn 1.0000 -0.0056 -0.0058
vn -0.0000 -0.9644 0.2646
vn 1.0000 0.0027 -0.0072
vn -0.9757 0.2035 0.0813
vn -0.0000 -0.0000 1.0000
vn -0.9799 0.1900 0.0601
vn -0.0000 0.9990 0.0439
vn -1.0000 -0.0051 0.0061
vn -0.9994 -0.0318 0.0154
vn -0.9992 -0.0379 0.0145
vn -0.0000 0.7452 -0.6668
vn -0.9995 -0.0131 -0.0294
vn -0.9994 -0.0333 -0.0121
vn -0.9992 -0.0349 -0.0209
vn 0.9993 0.0344 0.0111
vn 0.9996 0.0100 0.0254
vn 0.9983 -0.0567 0.0139
vn 0.9895 0.0790 -0.1214
vn 0.9824 0.1534 -0.1066
vn 0.9911 -0.0236 -0.1311
vn 0.9893 -0.1031 -0.1028
vn -0.9854 0.1074 0.1323
vn -0.9962 -0.0290 0.0819
vn 0.9754 -0.1344 -0.1749
vn -0.9982 0.0478 -0.0351
vn -0.9988 -0.0401 -0.0294
vn 0.9664 0.2240 -0.1262
vn 0.9606 0.2706 -0.0627
vn 0.9867 -0.1560 -0.0450
vn 0.9552 0.2944 0.0306
vn 0.9796 -0.2003 0.0171
vn 0.9131 0.2707 0.3048
vn -0.9999 -0.0121 0.0056
vn 0.9443 0.2800 0.1732
vn 0.9816 -0.1342 0.1362
vn -0.9998 -0.0000 -0.0216
vn 0.9108 -0.1258 0.3932
vn -0.9994 -0.0000 0.0344
vn 0.9765 -0.1619 0.1421
vn -0.9997 -0.0215 -0.0124
vn 0.8855 0.2807 0.3703
vn 0.8952 -0.2036 0.3965
vn 0.9999 -0.0048 0.0120
vn 0.9998 -0.0108 0.0184
vn -0.9997 0.0235 0.0016
vn -0.9999 -0.0041 -0.0159
vn -0.9999 -0.0079 -0.0077
vn -1.0000 -0.0022 -0.0064
vn -1.0000 -0.0056 -0.0058
vn -1.0000 0.0062 -0.0078
vn -1.0000 0.0027 -0.0072
vn 0.9757 0.2035 0.0813
vn 0.9799 0.1900 0.0601
vn 1.0000 -0.0051 0.0061
vn 0.9994 -0.0318 0.0154
vn 0.9992 -0.0379 0.0145
vn 0.9995 -0.0131 -0.0294
vn 0.9994 -0.0333 -0.0121
vn 0.9992 -0.0349 -0.0209
vn -0.9993 0.0344 0.0111
vn -0.9996 0.0100 0.0254
vn -0.9983 -0.0567 0.0139
vt 0.500000 0.000000
vt 0.625000 0.000000
vt 0.625000 0.250000
vt 0.500000 0.250000
vt 0.375000 0.000000
vt 0.375000 0.250000
vt 0.750000 0.500000
vt 0.875000 0.500000
vt 0.875000 0.750000
vt 0.750000 0.750000
vt 0.125000 0.500000
vt 0.250000 0.500000
vt 0.250000 0.750000
vt 0.125000 0.750000
vt 0.500000 0.375000
vt 0.375000 0.375000
vt 0.625000 0.375000
vt 0.000000 0.000000
vt 0.500000 1.000000
vt 0.500000 0.875000
vt 0.375000 0.875000
vt 0.375000 1.000000
vt 0.625000 0.875000
vt 0.625000 1.000000
s 1
usemtl Material.009
f 8/1/1 2/2/1 4/3/1 7/4/1
f 2/2/2 8/1/2 16/1/2 14/2/2
f 1/5/3 8/1/3 7/4/3 3/6/3
f 10/7/4 4/8/4 2/9/4 12/10/4
f 8/1/5 1/5/5 13/5/5 16/1/5
f 3/11/6 9/12/6 11/13/6 1/14/6
f 3/6/7 7/4/7 5/15/7 9/16/7
f 7/4/8 4/3/8 10/17/8 5/15/8
f 13/14/9 17/13/9 23/13/9 19/14/9
f 17/18/10 15/18/10 21/18/10 23/18/10
f 12/10/11 2/9/11 14/9/11 18/10/11
f 11/18/12 6/18/12 15/18/12 17/18/12
f 1/14/13 11/13/13 17/13/13 13/14/13
f 6/18/14 12/18/14 18/18/14 15/18/14
f 24/10/15 20/9/15 26/9/15 30/10/15
f 22/1/16 19/5/16 25/5/16 28/1/16
f 15/18/9 18/18/9 24/18/9 21/18/9
f 14/2/17 16/1/17 22/1/17 20/2/17
f 16/1/9 13/5/9 19/5/9 22/1/9
f 18/10/9 14/9/9 20/9/9 24/10/9
f 25/14/18 29/13/18 35/13/18 31/14/18
f 29/18/19 27/18/19 33/18/19 35/18/19
f 23/18/20 21/18/20 27/18/20 29/18/20
f 19/14/21 23/13/21 29/13/21 25/14/21
f 21/18/22 24/18/22 30/18/22 27/18/22
f 20/2/23 22/1/23 28/1/23 26/2/23
f 33/18/19 36/18/19 42/18/19 39/18/19
f 31/14/24 35/13/24 41/13/24 37/14/24
f 27/18/19 30/18/19 36/18/19 33/18/19
f 26/2/25 28/1/25 34/1/25 32/2/25
f 28/1/26 25/5/26 31/5/26 34/1/26
f 30/10/27 26/9/27 32/9/27 36/10/27
f 41/18/19 39/18/19 45/18/19 47/18/19
f 42/10/28 38/9/28 44/9/29 48/10/30
f 32/2/31 34/1/31 40/1/31 38/2/31
f 34/1/32 31/5/32 37/5/32 40/1/32
f 36/10/33 32/9/33 38/9/33 42/10/33
f 35/18/19 33/18/19 39/18/19 41/18/19
f 44/2/34 46/1/34 52/1/34 50/2/34
f 45/18/35 48/18/35 54/18/35 51/18/35
f 37/14/36 41/13/36 47/13/36 43/14/36
f 39/18/19 42/18/19 48/18/19 45/18/19
f 38/2/37 40/1/37 46/1/37 44/2/37
f 40/1/38 37/5/38 43/5/38 46/1/38
f 49/14/39 53/13/39 59/13/39 55/14/39
f 53/18/40 51/18/40 57/18/40 59/18/40
f 46/1/41 43/5/41 49/5/41 52/1/41
f 48/10/30 44/9/29 50/9/42 54/10/42
f 47/18/43 45/18/43 51/18/43 53/18/43
f 43/14/44 47/13/44 53/13/44 49/14/44
f 60/10/45 56/9/45 88/9/45 92/10/45
f 58/1/46 55/5/46 87/5/46 90/1/46
f 51/18/47 54/18/47 60/18/47 57/18/47
f 50/2/48 52/1/48 58/1/48 56/2/48
f 52/1/49 49/5/49 55/5/49 58/1/49
f 54/10/50 50/9/50 56/9/50 60/10/50
f 9/16/51 5/15/51 61/15/51 62/16/51
f 62/16/52 61/15/52 63/15/52 64/16/52
f 64/16/53 63/15/53 65/15/53 66/16/53
f 68/16/54 67/15/54 69/15/54 70/16/54
f 70/16/55 69/15/55 71/15/55 72/16/55
f 72/16/56 71/15/56 73/15/56 74/16/56
f 36/18/51 42/18/51 76/18/51 75/18/51
f 75/18/51 76/18/51 78/18/51 77/18/51
f 77/18/51 78/18/51 80/18/51 79/18/51
f 81/18/51 82/18/51 84/18/51 83/18/51
f 83/18/51 84/18/51 86/18/51 85/18/51
f 90/19/57 89/20/57 94/20/57 95/19/57
f 91/21/58 89/20/58 90/19/58 87/22/58
f 59/18/59 57/18/60 89/18/61 91/18/59
f 55/14/62 59/13/62 91/13/62 87/14/62
f 57/18/60 60/18/63 92/18/63 89/18/61
f 56/2/64 58/1/64 90/1/64 88/2/64
f 94/20/65 96/23/65 93/24/65 95/19/65
f 89/18/19 92/18/19 96/18/19 94/18/19
f 88/2/66 90/1/66 95/1/66 93/2/66
f 92/10/67 88/9/67 93/9/67 96/10/67
f 97/18/68 98/18/68 100/18/68 99/18/68
f 99/18/69 100/18/69 101/18/69 102/18/69
f 102/18/70 101/18/70 103/18/70 104/18/70
f 99/18/71 102/18/71 106/18/71 105/18/71
f 105/18/72 106/18/72 108/18/72 107/18/72
f 108/18/51 106/18/51 109/18/51 110/18/51
f 107/18/73 108/18/73 112/18/73 111/18/73
f 111/18/74 112/18/74 114/18/74 113/18/74
f 115/18/75 116/18/75 118/18/75 117/18/75
f 118/18/76 116/18/76 119/18/76 120/18/76
f 122/18/77 121/18/77 123/18/77 124/18/77
f 132/1/78 131/4/78 128/3/78 126/2/78
f 126/2/79 138/2/79 140/1/79 132/1/79
f 125/5/80 127/6/80 131/4/80 132/1/80
f 134/7/4 136/10/4 126/9/4 128/8/4
f 132/1/81 140/1/81 137/5/81 125/5/81
f 127/11/6 125/14/6 135/13/6 133/12/6
f 127/6/7 133/16/7 129/15/7 131/4/7
f 131/4/8 129/15/8 134/17/8 128/3/8
f 137/14/9 143/14/9 147/13/9 141/13/9
f 141/18/10 147/18/10 145/18/10 139/18/10
f 136/10/11 142/10/11 138/9/11 126/9/11
f 135/18/82 141/18/82 139/18/82 130/18/82
f 125/14/13 137/14/13 141/13/13 135/13/13
f 130/18/83 139/18/83 142/18/83 136/18/83
f 148/10/15 154/10/15 150/9/15 144/9/15
f 146/1/84 152/1/84 149/5/84 143/5/84
f 139/18/9 145/18/9 148/18/9 142/18/9
f 138/2/17 144/2/17 146/1/17 140/1/17
f 140/1/9 146/1/9 143/5/9 137/5/9
f 142/10/18 148/10/18 144/9/18 138/9/18
f 149/14/18 155/14/18 159/13/18 153/13/18
f 153/18/51 159/18/51 157/18/51 151/18/51
f 147/18/85 153/18/85 151/18/85 145/18/85
f 143/14/21 149/14/21 153/13/21 147/13/21
f 145/18/86 151/18/86 154/18/86 148/18/86
f 144/2/87 150/2/87 152/1/87 146/1/87
f 157/18/51 163/18/51 166/18/51 160/18/51
f 155/14/24 161/14/24 165/13/24 159/13/24
f 151/18/51 157/18/51 160/18/51 154/18/51
f 150/2/88 156/2/88 158/1/88 152/1/88
f 152/1/89 158/1/89 155/5/89 149/5/89
f 154/10/27 160/10/27 156/9/27 150/9/27
f 165/18/51 171/18/51 169/18/51 163/18/51
f 166/10/28 172/10/30 168/9/29 162/9/28
f 156/2/90 162/2/90 164/1/90 158/1/90
f 158/1/91 164/1/91 161/5/91 155/5/91
f 160/10/33 166/10/33 162/9/33 156/9/33
f 159/18/51 165/18/51 163/18/51 157/18/51
f 168/2/92 174/2/92 176/1/92 170/1/92
f 169/18/93 175/18/93 178/18/93 172/18/93
f 161/14/36 167/14/36 171/13/36 165/13/36
f 163/18/51 169/18/51 172/18/51 166/18/51
f 162/2/94 168/2/94 170/1/94 164/1/94
f 164/1/95 170/1/95 167/5/95 161/5/95
f 173/14/39 179/14/39 183/13/39 177/13/39
f 177/18/96 183/18/96 181/18/96 175/18/96
f 170/1/97 176/1/97 173/5/97 167/5/97
f 172/10/30 178/10/42 174/9/42 168/9/29
f 171/18/98 177/18/98 175/18/98 169/18/98
f 167/14/44 173/14/44 177/13/44 171/13/44
f 184/10/45 216/10/45 212/9/45 180/9/45
f 182/1/99 214/1/99 211/5/99 179/5/99
f 175/18/100 181/18/100 184/18/100 178/18/100
f 174/2/101 180/2/101 182/1/101 176/1/101
f 176/1/102 182/1/102 179/5/102 173/5/102
f 178/10/50 184/10/50 180/9/50 174/9/50
f 133/16/19 186/16/19 185/15/19 129/15/19
f 186/16/103 188/16/103 187/15/103 185/15/103
f 188/16/104 190/16/104 189/15/104 187/15/104
f 192/16/105 194/16/105 193/15/105 191/15/105
f 194/16/106 196/16/106 195/15/106 193/15/106
f 196/16/107 198/16/107 197/15/107 195/15/107
f 160/18/19 199/18/19 200/18/19 166/18/19
f 199/18/19 201/18/19 202/18/19 200/18/19
f 201/18/19 203/18/19 204/18/19 202/18/19
f 205/18/19 207/18/19 208/18/19 206/18/19
f 207/18/19 209/18/19 210/18/19 208/18/19
f 214/19/57 219/19/57 218/20/57 213/20/57
f 215/21/58 211/22/58 214/19/58 213/20/58
f 183/18/108 215/18/108 213/18/109 181/18/110
f 179/14/62 211/14/62 215/13/62 183/13/62
f 181/18/110 213/18/109 216/18/111 184/18/111
f 180/2/112 212/2/112 214/1/112 182/1/112
f 218/20/65 219/19/65 217/24/65 220/23/65
f 213/18/51 218/18/51 220/18/51 216/18/51
f 212/2/113 217/2/113 219/1/113 214/1/113
f 216/10/67 220/10/67 217/9/67 212/9/67
f 221/18/114 223/18/114 224/18/114 222/18/114
f 223/18/115 226/18/115 225/18/115 224/18/115
f 226/18/116 228/18/116 227/18/116 225/18/116
f 223/18/71 229/18/71 230/18/71 226/18/71
f 229/18/117 231/18/117 232/18/117 230/18/117
f 232/18/19 234/18/19 233/18/19 230/18/19
f 231/18/118 235/18/118 236/18/118 232/18/118
f 235/18/119 237/18/119 238/18/119 236/18/119
f 239/18/120 241/18/120 242/18/120 240/18/120
f 242/18/121 244/18/121 243/18/121 240/18/121
f 246/18/122 248/18/122 247/18/122 245/18/122
