# Blender 4.0.2
# www.blender.org
mtllib Fish1.mtl
o Cube.006
v -0.004763 -0.014744 -0.627236
v 0.027003 -0.014744 -0.470421
v 0.031761 -0.014744 -0.470421
v -0.004753 -0.014744 -0.627236
v 0.033890 -0.089797 -0.491802
v 0.032799 0.049829 -0.498091
v 0.002779 -0.095038 -0.619899
v -0.003714 0.063454 -0.624092
v -0.004763 -0.095038 -0.619899
v -0.004763 0.063454 -0.624092
v -0.002794 -0.089797 -0.491802
v -0.000046 0.049829 -0.498091
v 0.018810 -0.006452 -0.381030
v 0.041710 -0.006452 -0.381030
v 0.040563 -0.107182 -0.385628
v 0.057736 0.087144 -0.386061
v -0.002072 -0.107182 -0.385628
v 0.018810 0.087144 -0.386061
v 0.012297 -0.005415 -0.297072
v 0.051317 -0.005415 -0.297072
v 0.037771 -0.135849 -0.303025
v 0.062702 0.115781 -0.303586
v 0.000335 -0.135849 -0.303025
v 0.012297 0.115781 -0.303586
v 0.006332 -0.004394 -0.202549
v 0.060116 -0.004394 -0.202549
v 0.044807 -0.168070 -0.205216
v 0.067250 0.142080 -0.210422
v -0.000843 -0.168070 -0.205216
v 0.006332 0.142080 -0.210422
v 0.000230 -0.003206 -0.070342
v 0.069117 -0.003206 -0.070342
v 0.040136 -0.188672 -0.078807
v 0.071902 0.169125 -0.079605
v 0.000230 -0.188672 -0.078807
v 0.000230 0.169125 -0.079605
v 0.000230 -0.002704 0.053560
v 0.069117 -0.002704 0.053560
v 0.040136 -0.188170 0.045096
v 0.071902 0.187234 0.041782
v 0.000230 -0.188170 0.045096
v 0.000230 0.187234 0.041782
v 0.000230 -0.001860 0.157051
v 0.069117 -0.001860 0.157051
v 0.040136 -0.183703 0.148587
v 0.071902 0.195625 0.155838
v 0.000230 -0.183703 0.148587
v 0.000230 0.195625 0.155838
v 0.000230 -0.003891 0.257663
v 0.069117 -0.003891 0.257663
v 0.040136 -0.172109 0.249199
v 0.071902 0.193594 0.256450
v 0.000230 -0.172109 0.249199
v 0.000230 0.193594 0.256450
v 0.000230 -0.006309 0.367242
v 0.069117 -0.006309 0.367242
v 0.040136 -0.166143 0.344104
v 0.040136 0.177550 0.344019
v 0.000230 -0.166143 0.314833
v 0.000230 0.177550 0.344019
v 0.000230 -0.007211 0.466783
v 0.069117 -0.007211 0.466783
v 0.040136 -0.152372 0.443645
v 0.040136 0.158831 0.425742
v 0.000230 -0.152372 0.443645
v 0.000230 0.158831 0.425742
v 0.000230 -0.002578 0.576693
v 0.069117 -0.002578 0.576693
v 0.040136 -0.135162 0.549362
v 0.040136 0.126781 0.528315
v 0.000230 -0.135162 0.549362
v 0.000230 0.126781 0.528315
v 0.000230 0.002195 0.638322
v 0.069117 0.002195 0.638322
v 0.040136 -0.077985 0.650819
v 0.040136 0.074958 0.624531
v 0.000230 -0.077985 0.650819
v 0.000230 0.074958 0.624531
v -0.001522 -0.016153 0.647740
v 0.069117 -0.016153 0.647740
v 0.040136 -0.042881 0.674911
v 0.040136 0.017830 0.684258
v -0.003300 -0.042881 0.674911
v 0.000230 0.017830 0.684258
v 0.000230 -0.016153 0.647740
v 0.069117 -0.016153 0.647740
v 0.040136 -0.042881 0.674911
v 0.000230 -0.042881 0.674911
v -0.000111 -0.016555 -0.833699
v -0.004763 -0.156614 -0.770219
v -0.004763 0.126842 -0.776223
v -0.000806 0.122899 -0.857244
v -0.000177 0.150386 -0.835989
v 0.000413 -0.136192 -0.857756
v -0.004763 -0.174620 -0.840339
v 0.000230 0.274101 0.043170
v 0.000230 0.280746 0.170326
v 0.000230 0.282337 0.211172
v 0.000230 0.328538 0.133853
v 0.000230 0.326436 0.095259
v 0.071902 0.177172 -0.036195
v 0.000230 0.175674 -0.036195
v 0.000230 0.248458 0.009736
v 0.000261 0.097621 -0.559718
v 0.000760 0.134936 -0.447689
v 0.000568 0.173635 -0.379048
v 0.000230 0.250456 -0.205375
v 0.071902 0.176461 -0.038730
v 0.000230 0.176461 -0.038730
v 0.000230 0.257792 -0.164500
v 0.000335 -0.187415 -0.432568
v -0.000843 -0.225458 -0.328208
v 0.000335 -0.244096 -0.439696
v -0.000843 -0.255189 -0.379896
v 0.037771 -0.109647 -0.376536
v 0.000335 -0.109647 -0.376536
v 0.000335 -0.165580 -0.431840
v 0.000230 -0.174123 0.167448
v 0.000230 -0.251038 0.242440
v 0.000230 -0.242331 0.161160
v 0.000230 -0.280384 0.206806
v 0.000230 -0.272073 0.160897
v 0.000230 -0.288364 0.178112
v 0.004763 -0.014744 -0.627236
v -0.027003 -0.014744 -0.470421
v -0.031761 -0.014744 -0.470421
v 0.004753 -0.014744 -0.627236
v -0.033890 -0.089797 -0.491802
v -0.032799 0.049829 -0.498091
v -0.002779 -0.095038 -0.619899
v 0.003714 0.063454 -0.624092
v 0.004763 -0.095038 -0.619899
v 0.004763 0.063454 -0.624092
v 0.002794 -0.089797 -0.491802
v 0.000046 0.049829 -0.498091
v -0.018810 -0.006452 -0.381030
v -0.041710 -0.006452 -0.381030
v -0.040563 -0.107182 -0.385628
v -0.057736 0.087144 -0.386061
v 0.002072 -0.107182 -0.385628
v -0.018810 0.087144 -0.386061
v -0.012297 -0.005415 -0.297072
v -0.051317 -0.005415 -0.297072
v -0.037771 -0.135849 -0.303025
v -0.062702 0.115781 -0.303586
v -0.000335 -0.135849 -0.303025
v -0.012297 0.115781 -0.303586
v -0.006332 -0.004394 -0.202549
v -0.060116 -0.004394 -0.202549
v -0.044806 -0.168070 -0.205216
v -0.067250 0.142080 -0.210422
v 0.000843 -0.168070 -0.205216
v -0.006332 0.142080 -0.210422
v -0.000230 -0.003206 -0.070342
v -0.069117 -0.003206 -0.070342
v -0.040136 -0.188672 -0.078807
v -0.071902 0.169125 -0.079605
v -0.000230 -0.188672 -0.078807
v -0.000230 0.169125 -0.079605
v -0.000230 -0.002704 0.053560
v -0.069117 -0.002704 0.053560
v -0.040136 -0.188170 0.045096
v -0.071902 0.187234 0.041782
v -0.000230 -0.188170 0.045096
v -0.000230 0.187234 0.041782
v -0.000230 -0.001860 0.157051
v -0.069117 -0.001860 0.157051
v -0.040136 -0.183703 0.148587
v -0.071902 0.195625 0.155838
v -0.000230 -0.183703 0.148587
v -0.000230 0.195625 0.155838
v -0.000230 -0.003891 0.257663
v -0.069117 -0.003891 0.257663
v -0.040136 -0.172109 0.249199
v -0.071902 0.193594 0.256450
v -0.000230 -0.172109 0.249199
v -0.000230 0.193594 0.256450
v -0.000230 -0.006309 0.367242
v -0.069117 -0.006309 0.367242
v -0.040136 -0.166143 0.344104
v -0.040136 0.177550 0.344019
v -0.000230 -0.166143 0.314833
v -0.000230 0.177550 0.344019
v -0.000230 -0.007211 0.466783
v -0.069117 -0.007211 0.466783
v -0.040136 -0.152372 0.443645
v -0.040136 0.158831 0.425742
v -0.000230 -0.152372 0.443645
v -0.000230 0.158831 0.425742
v -0.000230 -0.002578 0.576693
v -0.069117 -0.002578 0.576693
v -0.040136 -0.135162 0.549362
v -0.040136 0.126781 0.528315
v -0.000230 -0.135162 0.549362
v -0.000230 0.126781 0.528315
v -0.000230 0.002195 0.638322
v -0.069117 0.002195 0.638322
v -0.040136 -0.077985 0.650819
v -0.040136 0.074958 0.624531
v -0.000230 -0.077985 0.650819
v -0.000230 0.074958 0.624531
v 0.001522 -0.016153 0.647740
v -0.069117 -0.016153 0.647740
v -0.040136 -0.042881 0.674911
v -0.040136 0.017830 0.684258
v 0.003300 -0.042881 0.674911
v -0.000230 0.017830 0.684258
v -0.000230 -0.016153 0.647740
v -0.069117 -0.016153 0.647740
v -0.040136 -0.042881 0.674911
v -0.000230 -0.042881 0.674911
v 0.000111 -0.016555 -0.833699
v 0.004763 -0.156614 -0.770219
v 0.004763 0.126842 -0.776223
v 0.000806 0.122899 -0.857244
v 0.000177 0.150386 -0.835989
v -0.000413 -0.136192 -0.857756
v 0.004763 -0.174620 -0.840339
v -0.000230 0.274101 0.043170
v -0.000230 0.280746 0.170326
v -0.000230 0.282337 0.211172
v -0.000230 0.328538 0.133853
v -0.000230 0.326436 0.095259
v -0.071902 0.177172 -0.036195
v -0.000230 0.175674 -0.036195
v -0.000230 0.248458 0.009736
v -0.000261 0.097621 -0.559718
v -0.000760 0.134936 -0.447689
v -0.000568 0.173635 -0.379048
v 0.000000 0.216075 -0.294268
v -0.000230 0.250456 -0.205375
v -0.071902 0.176461 -0.038730
v -0.000230 0.176461 -0.038730
v -0.000230 0.257792 -0.164500
v -0.000335 -0.187415 -0.432568
v 0.000843 -0.225458 -0.328208
v -0.000335 -0.244096 -0.439696
v 0.000843 -0.255189 -0.379896
v -0.037771 -0.109647 -0.376536
v -0.000335 -0.109647 -0.376536
v -0.000335 -0.165580 -0.431840
v -0.000230 -0.174123 0.167448
v -0.000230 -0.251038 0.242440
v -0.000230 -0.242331 0.161160
v -0.000230 -0.280384 0.206806
v -0.000230 -0.272073 0.160897
v -0.000230 -0.288364 0.178112
vn -0.0000 0.0402 -0.9992
vn 0.9660 -0.0574 -0.2522
vn -0.0000 -0.9992 0.0409
vn -0.0000 -0.0910 -0.9959
vn -0.0000 0.9942 0.1075
vn 0.9694 0.0812 -0.2316
vn 0.9810 -0.1347 -0.1394
vn -0.0000 0.9488 -0.3160
vn -0.0000 0.9447 -0.3279
vn -0.0000 0.9486 -0.3165
vn -0.0000 0.9447 -0.3280
vn -0.0000 -0.9447 -0.3279
vn -0.9848 -0.1506 0.0862
vn 0.9963 0.0180 -0.0838
vn -0.9597 0.2802 -0.0236
vn -0.0000 -0.9869 -0.1616
vn -0.9975 0.0657 -0.0264
vn 0.9908 -0.0944 -0.0969
vn -0.9970 -0.0042 -0.0773
vn 0.9968 -0.0610 -0.0509
vn -0.9901 0.1407 -0.0011
vn 0.9895 -0.1297 -0.0635
vn -0.9989 -0.0025 -0.0461
vn -0.0000 0.9793 -0.2025
vn 0.9956 -0.0721 -0.0603
vn -0.0000 -0.9498 -0.3129
vn -0.0000 0.9624 -0.2717
vn -0.9980 -0.0034 -0.0629
vn 0.9999 -0.0153 0.0012
vn 0.9999 -0.0148 0.0009
vn -1.0000 -0.0000 -0.0000
vn 0.9918 -0.1250 -0.0260
vn -0.9996 0.0211 -0.0179
vn 0.9983 -0.0337 -0.0482
vn -0.0000 -0.9870 -0.1609
vn -0.0000 0.9973 -0.0734
vn -0.0000 -1.0000 0.0040
vn -0.0000 0.9891 -0.1476
vn 0.9880 -0.1544 0.0006
vn 0.9879 -0.1553 0.0024
vn 0.9879 -0.1552 0.0022
vn 0.9999 -0.0142 0.0002
vn 0.9999 -0.0141 -0.0003
vn 0.9871 -0.1600 0.0059
vn 0.9865 -0.1635 0.0077
vn -0.0000 -0.9991 0.0431
vn -0.0000 0.9836 0.1802
vn -0.0000 -0.9934 0.1145
vn -0.0000 0.9998 0.0202
vn 0.9856 -0.1691 0.0054
vn 0.9848 -0.1738 0.0032
vn 0.9859 0.1666 0.0180
vn 0.9847 -0.1743 0.0030
vn 0.9831 0.0781 0.1657
vn -0.0272 -0.9969 0.0741
vn -0.0000 0.9545 0.2982
vn -0.0439 -0.9918 0.1196
vn -0.0000 0.9748 0.2233
vn 0.9820 -0.1885 0.0122
vn -0.0000 -0.8712 0.4910
vn 0.9498 0.2999 0.0894
vn 0.9779 -0.2079 0.0211
vn 0.9795 0.2000 0.0258
vn -0.0000 -0.9870 0.1607
vn -0.0000 0.7227 0.6912
vn -0.0000 -0.5659 0.8245
vn -0.0000 0.8804 0.4742
vn 0.9580 -0.2681 0.1018
vn 0.8376 0.3690 0.4028
vn -0.9897 -0.0349 -0.1385
vn 0.8904 -0.4072 0.2036
vn -0.9998 0.0177 -0.0060
vn -0.0000 -0.7320 0.6813
vn -0.0000 1.0000 -0.0000
vn -0.0000 0.7129 0.7013
vn 0.9997 -0.0160 0.0159
vn 0.9997 0.0167 0.0158
vn 0.9988 0.0011 0.0487
vn 0.9982 -0.0316 0.0517
vn 1.0000 -0.0000 -0.0000
vn 0.0104 -0.9905 0.1373
vn 0.9984 0.0557 0.0111
vn -0.9924 -0.1227 0.0110
vn -0.9764 -0.2100 0.0503
vn -0.9933 -0.0516 0.1030
vn -0.0000 -0.9843 0.1767
vn 0.9999 -0.0150 0.0065
vn 0.9999 -0.0081 0.0119
vn -0.0000 -0.9420 -0.3357
vn -0.9660 -0.0574 -0.2522
vn -0.9694 0.0812 -0.2316
vn -0.9810 -0.1347 -0.1394
vn 0.9848 -0.1506 0.0862
vn -0.9963 0.0180 -0.0838
vn 0.9597 0.2802 -0.0236
vn 0.9975 0.0657 -0.0264
vn -0.9908 -0.0944 -0.0969
vn 0.9970 -0.0042 -0.0773
vn -0.9968 -0.0610 -0.0509
vn 0.9901 0.1407 -0.0011
vn -0.9895 -0.1297 -0.0635
vn 0.9989 -0.0025 -0.0461
vn -0.9956 -0.0721 -0.0603
vn 0.9980 -0.0034 -0.0629
vn -0.9999 -0.0153 0.0012
vn -0.9999 -0.0148 0.0009
vn -0.9918 -0.1250 -0.0260
vn 0.9996 0.0211 -0.0179
vn -0.9983 -0.0337 -0.0482
vn -0.9880 -0.1544 0.0006
vn -0.9879 -0.1552 0.0022
vn -0.9879 -0.1553 0.0024
vn -0.9999 -0.0142 0.0002
vn -0.9999 -0.0141 -0.0003
vn -0.9865 -0.1635 0.0077
vn -0.9871 -0.1600 0.0059
vn -0.9848 -0.1738 0.0032
vn -0.9856 -0.1691 0.0054
vn -0.9859 0.1666 0.0180
vn -0.9847 -0.1743 0.0030
vn -0.9831 0.0781 0.1657
vn 0.0272 -0.9969 0.0741
vn 0.0439 -0.9918 0.1196
vn -0.9820 -0.1885 0.0122
vn -0.9498 0.2999 0.0894
vn -0.9779 -0.2079 0.0211
vn -0.9795 0.2000 0.0258
vn -0.9580 -0.2681 0.1018
vn -0.8376 0.3690 0.4028
vn 0.9897 -0.0349 -0.1385
vn -0.8904 -0.4072 0.2036
vn 0.9998 0.0177 -0.0060
vn -0.8361 -0.3216 0.4445
vn -0.0000 -1.0000 -0.0000
vn -0.9997 -0.0160 0.0159
vn -0.9997 0.0167 0.0158
vn -0.9988 0.0011 0.0487
vn -0.9982 -0.0316 0.0517
vn -0.0104 -0.9905 0.1373
vn -0.9984 0.0557 0.0111
vn 0.9924 -0.1227 0.0110
vn 0.9764 -0.2100 0.0503
vn 0.9933 -0.0516 0.1030
vn -0.9999 -0.0150 0.0065
vn -0.9999 -0.0141 0.0071
vn -0.9999 -0.0094 0.0109
vn -0.9999 -0.0081 0.0119
vt 0.500000 0.375000
vt 0.625000 0.375000
vt 0.625000 0.500000
vt 0.500000 0.500000
vt 0.625000 0.750000
vt 0.500000 0.750000
vt 0.250000 0.500000
vt 0.375000 0.500000
vt 0.375000 0.750000
vt 0.250000 0.750000
vt 0.375000 0.375000
vt 0.750000 0.500000
vt 0.750000 0.750000
vt 0.000000 0.000000
vt 0.625000 0.875000
vt 0.500000 0.875000
vt 0.375000 0.875000
s 1
usemtl Material.003
f 1/1/1 10/2/1 8/3/1 4/4/1
f 4/4/2 8/3/2 6/5/2 3/6/2
f 9/7/3 7/8/3 5/9/3 11/10/3
f 9/11/4 1/1/4 4/4/4 7/8/4
f 8/3/5 10/12/5 12/13/5 6/5/5
f 7/8/6 4/4/6 3/6/6 5/9/6
f 3/6/7 6/5/7 16/5/7 14/6/7
f 6/5/8 12/13/8 18/13/9 16/5/10
f 16/5/10 18/13/9 24/13/11 22/5/11
f 17/10/12 15/9/12 21/9/12 23/10/12
f 12/14/13 2/14/13 13/14/13 18/14/13
f 5/9/14 3/6/14 14/6/14 15/9/14
f 2/14/15 11/14/15 17/14/15 13/14/15
f 11/10/16 5/9/16 15/9/16 17/10/16
f 19/14/17 23/14/17 29/14/17 25/14/17
f 21/9/18 20/6/18 26/6/18 27/9/18
f 18/14/19 13/14/19 19/14/19 24/14/19
f 15/9/20 14/6/20 20/6/20 21/9/20
f 13/14/21 17/14/21 23/14/21 19/14/21
f 14/6/22 16/5/22 22/5/22 20/6/22
f 30/14/23 25/14/23 31/14/23 36/14/23
f 28/5/24 30/13/24 36/13/24 34/5/24
f 20/6/25 22/5/25 28/5/25 26/6/25
f 23/10/26 21/9/26 27/9/26 29/10/26
f 22/5/27 24/13/27 30/13/27 28/5/27
f 24/14/28 19/14/28 25/14/28 30/14/28
f 32/6/29 34/5/29 40/5/30 38/6/30
f 31/14/31 35/14/31 41/14/31 37/14/31
f 27/9/32 26/6/32 32/6/32 33/9/32
f 25/14/33 29/14/33 35/14/33 31/14/33
f 26/6/34 28/5/34 34/5/34 32/6/34
f 29/10/35 27/9/35 33/9/35 35/10/35
f 42/14/31 37/14/31 43/14/31 48/14/31
f 40/5/36 42/13/36 48/13/36 46/5/36
f 35/10/37 33/9/37 39/9/37 41/10/37
f 34/5/38 36/13/38 42/13/38 40/5/38
f 36/14/31 31/14/31 37/14/31 42/14/31
f 33/9/39 32/6/39 38/6/40 39/9/41
f 44/6/42 46/5/42 52/5/43 50/6/43
f 43/14/31 47/14/31 53/14/31 49/14/31
f 39/9/41 38/6/40 44/6/44 45/9/45
f 37/14/31 41/14/31 47/14/31 43/14/31
f 38/6/30 40/5/30 46/5/42 44/6/42
f 41/10/46 39/9/46 45/9/46 47/10/46
f 54/14/31 49/14/31 55/14/31 60/14/31
f 52/5/47 54/13/47 60/13/47 58/5/47
f 47/10/48 45/9/48 51/9/48 53/10/48
f 46/5/49 48/13/49 54/13/49 52/5/49
f 48/14/31 43/14/31 49/14/31 54/14/31
f 45/9/45 44/6/44 50/6/50 51/9/51
f 56/6/52 58/5/52 64/5/52 62/6/52
f 55/14/31 59/14/31 65/14/31 61/14/31
f 51/9/51 50/6/50 56/6/53 57/9/53
f 49/14/31 53/14/31 59/14/31 55/14/31
f 50/6/54 52/5/54 58/5/54 56/6/54
f 53/10/55 51/9/55 57/9/55 59/10/55
f 66/14/31 61/14/31 67/14/31 72/14/31
f 64/5/56 66/13/56 72/13/56 70/5/56
f 59/10/57 57/9/57 63/9/57 65/10/57
f 58/5/58 60/13/58 66/13/58 64/5/58
f 60/14/31 55/14/31 61/14/31 66/14/31
f 57/9/59 56/6/59 62/6/59 63/9/59
f 71/10/60 69/9/60 75/9/60 77/10/60
f 68/6/61 70/5/61 76/5/61 74/6/61
f 63/9/62 62/6/62 68/6/62 69/9/62
f 61/14/31 65/14/31 71/14/31 67/14/31
f 62/6/63 64/5/63 70/5/63 68/6/63
f 65/10/64 63/9/64 69/9/64 71/10/64
f 76/5/65 78/13/65 84/13/65 82/5/65
f 77/10/66 75/9/66 81/9/66 83/10/66
f 70/5/67 72/13/67 78/13/67 76/5/67
f 72/14/31 67/14/31 73/14/31 78/14/31
f 69/9/68 68/6/68 74/6/68 75/9/68
f 67/14/31 71/14/31 77/14/31 73/14/31
f 74/6/69 76/5/69 82/5/69 80/6/69
f 73/14/70 77/14/70 83/14/70 79/14/70
f 75/9/71 74/6/71 80/6/71 81/9/71
f 78/14/72 73/14/72 79/14/72 84/14/72
f 80/6/73 82/5/73 84/15/73 79/16/73
f 81/9/74 80/6/74 86/6/74 87/9/74
f 87/9/75 86/6/75 85/16/75 88/17/75
f 79/14/75 83/14/75 88/14/75 85/14/75
f 83/10/74 81/9/74 87/9/74 88/10/74
f 80/6/74 79/16/74 85/16/74 86/6/74
f 1/1/76 9/11/76 90/11/76 89/1/76
f 10/2/77 1/1/77 89/1/77 91/2/77
f 91/2/78 89/1/78 92/1/78 93/2/78
f 89/1/79 90/11/79 95/11/79 94/1/79
f 48/13/31 54/13/31 98/13/31 97/13/31
f 48/14/80 42/14/80 96/14/80 97/14/80
f 97/14/80 96/14/80 100/14/80 99/14/80
f 96/14/80 42/14/80 102/14/80 103/14/80
f 40/5/81 42/13/81 102/13/81 101/5/81
f 36/14/82 30/14/82 230/14/82 107/14/82
f 24/13/83 30/13/83 230/13/83 106/13/83
f 18/13/84 24/13/84 106/13/84 105/13/84
f 12/13/85 18/13/85 105/13/85 104/13/85
f 36/14/80 107/14/80 110/14/80 109/14/80
f 36/13/86 34/5/86 108/5/86 109/13/86
f 23/14/87 29/14/87 112/14/87 111/14/87
f 111/14/88 112/14/88 114/14/88 113/14/88
f 23/14/80 111/14/80 117/14/80 116/14/80
f 21/9/89 23/10/89 116/10/89 115/9/89
f 53/14/80 59/14/80 119/14/80 118/14/80
f 118/14/80 119/14/80 121/14/80 120/14/80
f 120/14/80 121/14/80 123/14/80 122/14/80
f 124/1/1 127/4/1 131/3/1 133/2/1
f 127/4/90 126/6/90 129/5/90 131/3/90
f 132/7/3 134/10/3 128/9/3 130/8/3
f 132/11/4 130/8/4 127/4/4 124/1/4
f 131/3/5 129/5/5 135/13/5 133/12/5
f 130/8/91 128/9/91 126/6/91 127/4/91
f 126/6/92 137/6/92 139/5/92 129/5/92
f 129/5/8 139/5/10 141/13/9 135/13/8
f 139/5/10 145/5/11 147/13/11 141/13/9
f 140/10/12 146/10/12 144/9/12 138/9/12
f 135/14/93 141/14/93 136/14/93 125/14/93
f 128/9/94 138/9/94 137/6/94 126/6/94
f 125/14/95 136/14/95 140/14/95 134/14/95
f 134/10/16 140/10/16 138/9/16 128/9/16
f 142/14/96 148/14/96 152/14/96 146/14/96
f 144/9/97 150/9/97 149/6/97 143/6/97
f 141/14/98 147/14/98 142/14/98 136/14/98
f 138/9/99 144/9/99 143/6/99 137/6/99
f 136/14/100 142/14/100 146/14/100 140/14/100
f 137/6/101 143/6/101 145/5/101 139/5/101
f 153/14/102 159/14/102 154/14/102 148/14/102
f 151/5/24 157/5/24 159/13/24 153/13/24
f 143/6/103 149/6/103 151/5/103 145/5/103
f 146/10/26 152/10/26 150/9/26 144/9/26
f 145/5/27 151/5/27 153/13/27 147/13/27
f 147/14/104 153/14/104 148/14/104 142/14/104
f 155/6/105 161/6/106 163/5/106 157/5/105
f 154/14/80 160/14/80 164/14/80 158/14/80
f 150/9/107 156/9/107 155/6/107 149/6/107
f 148/14/108 154/14/108 158/14/108 152/14/108
f 149/6/109 155/6/109 157/5/109 151/5/109
f 152/10/35 158/10/35 156/9/35 150/9/35
f 165/14/80 171/14/80 166/14/80 160/14/80
f 163/5/36 169/5/36 171/13/36 165/13/36
f 158/10/37 164/10/37 162/9/37 156/9/37
f 157/5/38 163/5/38 165/13/38 159/13/38
f 159/14/80 165/14/80 160/14/80 154/14/80
f 156/9/110 162/9/111 161/6/112 155/6/110
f 167/6/113 173/6/114 175/5/114 169/5/113
f 166/14/80 172/14/80 176/14/80 170/14/80
f 162/9/111 168/9/115 167/6/116 161/6/112
f 160/14/80 166/14/80 170/14/80 164/14/80
f 161/6/106 167/6/113 169/5/113 163/5/106
f 164/10/46 170/10/46 168/9/46 162/9/46
f 177/14/80 183/14/80 178/14/80 172/14/80
f 175/5/47 181/5/47 183/13/47 177/13/47
f 170/10/48 176/10/48 174/9/48 168/9/48
f 169/5/49 175/5/49 177/13/49 171/13/49
f 171/14/80 177/14/80 172/14/80 166/14/80
f 168/9/115 174/9/117 173/6/118 167/6/116
f 179/6/119 185/6/119 187/5/119 181/5/119
f 178/14/80 184/14/80 188/14/80 182/14/80
f 174/9/117 180/9/120 179/6/120 173/6/118
f 172/14/80 178/14/80 182/14/80 176/14/80
f 173/6/121 179/6/121 181/5/121 175/5/121
f 176/10/122 182/10/122 180/9/122 174/9/122
f 189/14/80 195/14/80 190/14/80 184/14/80
f 187/5/56 193/5/56 195/13/56 189/13/56
f 182/10/123 188/10/123 186/9/123 180/9/123
f 181/5/58 187/5/58 189/13/58 183/13/58
f 183/14/80 189/14/80 184/14/80 178/14/80
f 180/9/124 186/9/124 185/6/124 179/6/124
f 194/10/60 200/10/60 198/9/60 192/9/60
f 191/6/125 197/6/125 199/5/125 193/5/125
f 186/9/126 192/9/126 191/6/126 185/6/126
f 184/14/80 190/14/80 194/14/80 188/14/80
f 185/6/127 191/6/127 193/5/127 187/5/127
f 188/10/64 194/10/64 192/9/64 186/9/64
f 199/5/65 205/5/65 207/13/65 201/13/65
f 200/10/66 206/10/66 204/9/66 198/9/66
f 193/5/67 199/5/67 201/13/67 195/13/67
f 195/14/80 201/14/80 196/14/80 190/14/80
f 192/9/128 198/9/128 197/6/128 191/6/128
f 190/14/80 196/14/80 200/14/80 194/14/80
f 197/6/129 203/6/129 205/5/129 199/5/129
f 196/14/130 202/14/130 206/14/130 200/14/130
f 198/9/131 204/9/131 203/6/131 197/6/131
f 201/14/132 207/14/132 202/14/132 196/14/132
f 203/6/73 202/16/73 207/15/73 205/5/73
f 204/9/74 210/9/74 209/6/75 203/6/133
f 210/9/75 211/17/75 208/16/75 209/6/75
f 202/14/75 208/14/75 211/14/75 206/14/75
f 206/10/74 211/10/74 210/9/74 204/9/74
f 203/6/133 209/6/75 208/16/134 202/16/134
f 124/1/135 212/1/135 213/11/135 132/11/135
f 133/2/136 214/2/136 212/1/136 124/1/136
f 214/2/137 216/2/137 215/1/137 212/1/137
f 212/1/138 217/1/138 218/11/138 213/11/138
f 171/13/80 220/13/80 221/13/80 177/13/80
f 171/14/31 220/14/31 219/14/31 165/14/31
f 220/14/31 222/14/31 223/14/31 219/14/31
f 219/14/31 226/14/31 225/14/31 165/14/31
f 163/5/139 224/5/139 225/13/139 165/13/139
f 159/14/140 231/14/140 230/14/140 153/14/140
f 147/13/141 229/13/141 230/13/141 153/13/141
f 141/13/142 228/13/142 229/13/142 147/13/142
f 135/13/143 227/13/143 228/13/143 141/13/143
f 159/14/31 233/14/31 234/14/31 231/14/31
f 159/13/86 233/13/86 232/5/86 157/5/86
f 146/14/144 235/14/145 236/14/146 152/14/144
f 235/14/145 237/14/147 238/14/147 236/14/146
f 146/14/31 240/14/31 241/14/31 235/14/31
f 144/9/89 239/9/89 240/10/89 146/10/89
f 176/14/31 242/14/31 243/14/31 182/14/31
f 242/14/31 244/14/31 245/14/31 243/14/31
f 244/14/31 246/14/31 247/14/31 245/14/31
