# Blender 4.0.2
# www.blender.org
mtllib Fish3.mtl
o Cube.010
v 0.010787 0.007253 -0.430503
v 0.010787 0.007253 -0.362913
v 0.031230 0.007253 -0.362913
v 0.017825 0.007253 -0.430503
v 0.024656 -0.026542 -0.362913
v 0.016547 0.041048 -0.362913
v 0.014097 -0.026542 -0.430503
v 0.007062 0.049641 -0.430503
v -0.005469 -0.026542 -0.430503
v -0.000533 0.049641 -0.430503
v -0.000610 -0.026542 -0.362913
v -0.000386 0.041048 -0.362913
v 0.010787 0.007253 -0.252863
v 0.037914 0.007253 -0.252863
v 0.024656 -0.034403 -0.240636
v 0.024656 0.054150 -0.248496
v 0.000615 -0.034403 -0.240636
v 0.000138 0.054150 -0.248496
v 0.004711 0.022676 -0.084925
v 0.049865 0.022676 -0.084925
v 0.027796 -0.081599 -0.084660
v 0.027796 0.100737 -0.077656
v -0.003360 -0.081599 -0.084660
v -0.000551 0.100737 -0.077656
v -0.000898 0.010791 -0.500255
v 0.001678 0.010791 -0.500255
v 0.000417 -0.038024 -0.454259
v 0.000626 0.064155 -0.457797
v -0.000898 -0.038024 -0.454259
v -0.000898 0.064155 -0.457797
v -0.000941 0.016183 0.129632
v 0.060979 0.016183 0.129632
v 0.030717 -0.132051 0.110082
v 0.030717 0.123230 0.139600
v -0.000941 -0.132051 0.110082
v -0.000941 0.123230 0.139600
v -0.000941 -0.010342 0.365488
v 0.060979 -0.010342 0.365488
v 0.030717 -0.164864 0.341746
v 0.030717 0.141773 0.380697
v -0.000941 -0.164864 0.341746
v -0.000941 0.141773 0.380697
v -0.000941 -0.031585 0.533120
v 0.060979 -0.031585 0.533120
v 0.030717 -0.186107 0.511474
v 0.030717 0.147780 0.560906
v -0.000941 -0.186107 0.511474
v -0.000941 0.147780 0.560906
v -0.000941 -0.057154 0.706479
v 0.060979 -0.057154 0.706479
v 0.030717 -0.160320 0.639765
v 0.030717 0.154702 0.704918
v -0.000941 -0.160320 0.639765
v -0.000941 0.154702 0.704918
v -0.000941 -0.076365 0.772458
v 0.060979 -0.076365 0.772458
v 0.030717 -0.122934 0.764437
v 0.030717 0.130250 0.763561
v -0.000941 -0.122934 0.764437
v -0.000941 0.130250 0.763561
v -0.000941 -0.051636 0.768457
v 0.060979 -0.051636 0.772318
v 0.030717 -0.073400 0.794674
v 0.030717 0.104671 0.782444
v -0.000941 -0.073400 0.794674
v -0.000941 0.104671 0.782444
v 0.010787 0.015500 -0.430503
v 0.010787 0.013828 -0.362913
v 0.028651 0.013828 -0.362913
v 0.015245 0.015500 -0.430503
v 0.010787 0.016377 -0.252014
v 0.035335 0.016377 -0.252014
v 0.004711 0.037864 -0.083511
v 0.045571 0.037864 -0.083511
v -0.000898 0.021174 -0.491994
v -0.000896 0.021174 -0.491994
v -0.000941 0.037011 0.131572
v 0.055091 0.037011 0.131572
v -0.000941 0.019255 0.368447
v 0.055091 0.019255 0.368447
v -0.000941 0.003313 0.538526
v 0.055091 0.003313 0.538526
v -0.000941 -0.015934 0.706175
v 0.055091 -0.015934 0.706175
v -0.000941 -0.036164 0.770727
v 0.055091 -0.036164 0.770727
v -0.000941 -0.024160 0.794587
v 0.055091 -0.024160 0.794587
v -0.000157 0.041048 -0.362913
v 0.001915 0.054150 -0.248496
v 0.002238 0.100737 -0.077656
v -0.000941 0.123230 0.139600
v -0.000941 0.141773 0.380697
v -0.000941 0.147780 0.560906
v -0.000941 0.154702 0.704918
v 0.000328 0.062480 -0.344198
v 0.000104 0.083127 -0.244874
v 0.000150 0.137260 -0.085353
v -0.000941 0.228927 0.192273
v -0.000941 0.330479 0.405700
v -0.000941 0.315105 0.523023
v -0.000941 0.250338 0.639366
v -0.000898 -0.033737 -0.578586
v -0.000898 0.150182 -0.599667
v -0.000898 0.017130 -0.553894
v -0.000898 -0.092742 -0.566071
v -0.000898 -0.074701 -0.649849
v -0.000898 -0.118421 -0.644612
v -0.000898 -0.118529 -0.728519
v -0.000898 -0.154242 -0.742935
v -0.000898 0.010791 -0.500255
v 0.001227 0.010791 -0.500255
v -0.000898 0.021174 -0.491994
v -0.000896 0.021174 -0.491994
v -0.000898 0.011590 -0.494339
v -0.000896 0.011590 -0.494339
v -0.000898 -0.034204 -0.579914
v -0.000898 0.011590 -0.494339
v -0.000896 0.011590 -0.494339
v -0.000898 0.107566 -0.529388
v -0.000898 0.021174 -0.520935
v -0.000898 -0.011120 -0.537523
v -0.000898 -0.001571 -0.554521
v -0.000898 0.005027 -0.529229
v -0.000898 0.175959 -0.664363
v -0.000898 0.081322 -0.597868
v -0.000898 0.193953 -0.724815
v -0.000898 0.141975 -0.681772
v -0.000898 0.192134 -0.750289
v -0.000898 0.178367 -0.729688
v -0.000610 -0.025270 -0.393239
v 0.000615 -0.068309 -0.240636
v -0.003360 -0.119431 -0.107718
v -0.000941 -0.235912 -0.017785
v -0.003360 -0.087938 -0.084660
v -0.000941 -0.167736 0.062918
v 0.000615 -0.040742 -0.240636
v -0.000610 -0.024390 -0.369584
v -0.001685 -0.165684 -0.002531
v -0.001685 -0.143210 0.017560
v -0.001313 -0.155473 0.040239
v -0.001313 -0.219140 -0.018892
v -0.000941 -0.298411 0.283479
v -0.000941 -0.308327 0.281223
v -0.000941 -0.227980 0.355168
v -0.000941 -0.255503 0.401962
v -0.000941 -0.172641 0.418054
v -0.000941 -0.186329 0.500063
v -0.010787 0.007253 -0.430503
v -0.010787 0.007253 -0.362913
v -0.031230 0.007253 -0.362913
v -0.017825 0.007253 -0.430503
v -0.024656 -0.026542 -0.362913
v -0.016547 0.041048 -0.362913
v -0.014097 -0.026542 -0.430503
v -0.007062 0.049641 -0.430503
v 0.005469 -0.026542 -0.430503
v 0.000533 0.049641 -0.430503
v 0.000610 -0.026542 -0.362913
v 0.000386 0.041048 -0.362913
v -0.010787 0.007253 -0.252863
v -0.037914 0.007253 -0.252863
v -0.024656 -0.034403 -0.240636
v -0.024656 0.054150 -0.248496
v -0.000615 -0.034403 -0.240636
v -0.000138 0.054150 -0.248496
v -0.004711 0.022676 -0.084925
v -0.049865 0.022676 -0.084925
v -0.027796 -0.081599 -0.084660
v -0.027796 0.100737 -0.077656
v 0.003360 -0.081599 -0.084660
v 0.000551 0.100737 -0.077656
v 0.000898 0.010791 -0.500255
v -0.001678 0.010791 -0.500255
v -0.000417 -0.038024 -0.454259
v -0.000626 0.064155 -0.457797
v 0.000898 -0.038024 -0.454259
v 0.000898 0.064155 -0.457797
v 0.000941 0.016183 0.129632
v -0.060979 0.016183 0.129632
v -0.030717 -0.132051 0.110082
v -0.030717 0.123230 0.139600
v 0.000941 -0.132051 0.110082
v 0.000941 0.123230 0.139600
v 0.000941 -0.010342 0.365488
v -0.060979 -0.010342 0.365488
v -0.030717 -0.164864 0.341746
v -0.030717 0.141773 0.380697
v 0.000941 -0.164864 0.341746
v 0.000941 0.141773 0.380697
v 0.000941 -0.031585 0.533120
v -0.060979 -0.031585 0.533120
v -0.030717 -0.186107 0.511474
v -0.030717 0.147780 0.560906
v 0.000941 -0.186107 0.511474
v 0.000941 0.147780 0.560906
v 0.000941 -0.057154 0.706479
v -0.060979 -0.057154 0.706479
v -0.030717 -0.160320 0.639765
v -0.030717 0.154702 0.704918
v 0.000941 -0.160320 0.639765
v 0.000941 0.154702 0.704918
v 0.000941 -0.076365 0.772458
v -0.060979 -0.076365 0.772458
v -0.030717 -0.122934 0.764437
v -0.030717 0.130250 0.763561
v 0.000941 -0.122934 0.764437
v 0.000941 0.130250 0.763561
v 0.000941 -0.051636 0.768457
v -0.060979 -0.051636 0.772318
v -0.030717 -0.073400 0.794674
v -0.030717 0.104671 0.782444
v 0.000941 -0.073400 0.794674
v 0.000941 0.104671 0.782444
v -0.010787 0.015500 -0.430503
v -0.010787 0.013828 -0.362913
v -0.028651 0.013828 -0.362913
v -0.015245 0.015500 -0.430503
v -0.010787 0.016377 -0.252014
v -0.035335 0.016377 -0.252014
v -0.004711 0.037864 -0.083511
v -0.045571 0.037864 -0.083511
v 0.000898 0.021174 -0.491994
v 0.000896 0.021174 -0.491994
v 0.000941 0.037011 0.131572
v -0.055091 0.037011 0.131572
v 0.000941 0.019255 0.368447
v -0.055091 0.019255 0.368447
v 0.000941 0.003313 0.538526
v -0.055091 0.003313 0.538526
v 0.000941 -0.015934 0.706175
v -0.055091 -0.015934 0.706175
v 0.000941 -0.036164 0.770727
v -0.055091 -0.036164 0.770727
v 0.000941 -0.024160 0.794587
v -0.055091 -0.024160 0.794587
v 0.000157 0.041048 -0.362913
v -0.001915 0.054150 -0.248496
v -0.002238 0.100737 -0.077656
v 0.000941 0.123230 0.139600
v 0.000941 0.141773 0.380697
v 0.000941 0.147780 0.560906
v 0.000941 0.154702 0.704918
v -0.000328 0.062480 -0.344198
v -0.000104 0.083127 -0.244874
v -0.000150 0.137260 -0.085353
v 0.000941 0.228927 0.192273
v 0.000941 0.330479 0.405700
v 0.000941 0.315105 0.523023
v 0.000941 0.250338 0.639366
v 0.000898 -0.033737 -0.578586
v 0.000898 0.150182 -0.599667
v 0.000898 0.017130 -0.553894
v 0.000898 -0.092742 -0.566071
v 0.000898 -0.074701 -0.649849
v 0.000898 -0.118421 -0.644612
v 0.000898 -0.118529 -0.728519
v 0.000898 -0.154242 -0.742935
v 0.000898 0.010791 -0.500255
v -0.001227 0.010791 -0.500255
v 0.000898 0.021174 -0.491994
v 0.000896 0.021174 -0.491994
v 0.000898 0.011590 -0.494339
v 0.000896 0.011590 -0.494339
v 0.000898 -0.034204 -0.579914
v 0.000898 0.011590 -0.494339
v 0.000896 0.011590 -0.494339
v 0.000898 0.107566 -0.529388
v 0.000898 0.021174 -0.520935
v 0.000898 -0.011120 -0.537523
v 0.000898 -0.001571 -0.554521
v 0.000898 0.005027 -0.529229
v 0.000898 0.175959 -0.664363
v 0.000898 0.081322 -0.597868
v 0.000898 0.193953 -0.724815
v 0.000898 0.141975 -0.681772
v 0.000898 0.192134 -0.750289
v 0.000898 0.178367 -0.729688
v 0.000610 -0.025270 -0.393239
v -0.000615 -0.068309 -0.240636
v 0.003360 -0.119431 -0.107718
v 0.000941 -0.235912 -0.017785
v 0.003360 -0.087938 -0.084660
v 0.000941 -0.167736 0.062918
v -0.000615 -0.040742 -0.240636
v 0.000610 -0.024390 -0.369584
v 0.001685 -0.165684 -0.002531
v 0.001685 -0.143210 0.017560
v 0.001313 -0.155473 0.040239
v 0.001313 -0.219140 -0.018892
v 0.000941 -0.298411 0.283479
v 0.000941 -0.308327 0.281223
v 0.000941 -0.227980 0.355168
v 0.000941 -0.255503 0.401962
v 0.000941 -0.172641 0.418054
v 0.000941 -0.186329 0.500063
vn -0.0000 -0.9004 0.4351
vn 0.9407 0.3110 -0.1357
vn -0.0000 -1.0000 -0.0000
vn 0.9174 0.3431 -0.2016
vn -0.0000 0.9920 0.1261
vn 0.9737 -0.1484 -0.1726
vn -0.0000 0.9935 -0.1138
vn -0.0000 -0.9979 -0.0642
vn -0.9993 0.0034 -0.0365
vn -0.9996 0.0025 -0.0266
vn -0.9993 0.0033 -0.0360
vn -0.0000 0.9648 -0.2631
vn 0.9389 0.3337 -0.0848
vn -1.0000 -0.0000 -0.0000
vn 0.9650 -0.2596 -0.0365
vn -0.9608 0.2770 0.0144
vn -0.0000 -0.9680 -0.2508
vn 0.9604 0.2754 -0.0414
vn 0.9683 -0.2403 -0.0687
vn -0.9923 0.1224 -0.0188
vn 0.9557 0.2789 -0.0936
vn -0.0000 -0.9571 -0.2896
vn -0.0000 0.6226 -0.7825
vn -0.9734 0.2223 0.0552
vn 0.9360 -0.2127 -0.2805
vn -0.9787 -0.1840 0.0910
vn -0.0000 0.8829 0.4695
vn -0.0000 0.9971 -0.0767
vn -0.0000 -0.9901 -0.1402
vn -0.0000 0.9947 -0.1030
vn -0.9997 0.0024 -0.0263
vn 0.9783 -0.1981 -0.0611
vn -0.9995 0.0322 -0.0034
vn 0.9813 -0.1907 -0.0241
vn 0.9814 -0.1907 -0.0241
vn 0.9817 -0.1888 -0.0238
vn 0.9810 -0.1926 -0.0244
vn 0.9738 0.2275 -0.0004
vn -0.0000 0.9988 -0.0480
vn 0.9838 0.1790 0.0051
vn -0.0000 -0.9923 -0.1242
vn -0.0000 0.9994 -0.0333
vn 0.9886 0.1441 0.0443
vn 0.9882 0.1442 0.0523
vn 0.9882 0.1442 0.0515
vn 0.9735 -0.2287 0.0002
vn 0.9883 0.1525 0.0062
vn 0.9883 0.1525 0.0060
vn 0.9883 0.1525 0.0066
vn -0.0000 -0.9804 0.1971
vn -0.0000 0.5939 0.8045
vn -0.0000 -0.9579 0.2872
vn -0.0000 0.9230 0.3848
vn 0.9199 -0.3904 0.0372
vn -0.0000 0.0938 0.9956
vn -0.0271 0.7528 0.6577
vn 0.5412 -0.3158 0.7793
vn 0.9847 0.1660 0.0527
vn -0.0000 -0.5210 0.8535
vn 0.8555 0.2809 -0.4350
vn -0.0245 -0.6622 0.7489
vn 0.9882 0.1516 0.0199
vn 0.9886 0.1441 0.0435
vn 0.9840 0.1771 0.0195
vn 0.9740 0.2254 0.0211
vn -0.9993 -0.0341 -0.0123
vn -0.9826 -0.0752 0.1697
vn -0.0000 1.0000 -0.0000
vn -0.9473 -0.3194 0.0244
vn 0.9473 0.3146 -0.0609
vn -0.9875 -0.1572 0.0119
vn 0.9631 0.1742 -0.2053
vn 0.9290 0.3233 -0.1802
vn -0.9999 -0.0129 -0.0057
vn -1.0000 -0.0019 -0.0008
vn -0.9999 -0.0104 -0.0045
vn -0.9981 -0.0582 0.0189
vn -0.9994 -0.0324 0.0137
vn -0.0000 0.2377 -0.9713
vn -0.0000 -0.2377 0.9713
vn -0.9999 -0.0098 0.0113
vn -0.9999 -0.0103 0.0107
vn -0.9999 -0.0093 0.0116
vn 0.9997 -0.0087 0.0244
vn 0.9997 -0.0047 0.0249
vn 0.9997 -0.0095 0.0243
vn -0.9999 -0.0132 0.0084
vn -0.9999 -0.0115 0.0082
vn -1.0000 -0.0062 0.0074
vn -0.9999 -0.0135 0.0085
vn 0.9997 -0.0000 0.0255
vn -0.9999 -0.0111 0.0099
vn -0.9998 -0.0122 0.0136
vn -0.9998 -0.0141 0.0132
vn -0.9999 -0.0112 0.0117
vn -0.9998 -0.0144 0.0136
vn -0.9407 0.3110 -0.1357
vn -0.9174 0.3431 -0.2016
vn -0.9737 -0.1484 -0.1726
vn 0.9993 0.0034 -0.0365
vn 0.9993 0.0033 -0.0360
vn 0.9996 0.0025 -0.0266
vn -0.9389 0.3337 -0.0848
vn 1.0000 -0.0000 -0.0000
vn -0.9650 -0.2596 -0.0365
vn 0.9608 0.2770 0.0144
vn -0.9604 0.2754 -0.0414
vn -0.9683 -0.2403 -0.0687
vn 0.9923 0.1224 -0.0188
vn -0.9557 0.2789 -0.0936
vn 0.9734 0.2223 0.0552
vn -0.9360 -0.2127 -0.2805
vn 0.9787 -0.1840 0.0910
vn 0.9997 0.0024 -0.0263
vn -0.9783 -0.1981 -0.0611
vn 0.9995 0.0322 -0.0034
vn -0.9813 -0.1907 -0.0241
vn -0.9817 -0.1888 -0.0238
vn -0.9814 -0.1907 -0.0241
vn -0.9810 -0.1926 -0.0244
vn -0.9738 0.2275 -0.0004
vn -0.9838 0.1790 0.0051
vn -0.9886 0.1441 0.0443
vn -0.9882 0.1442 0.0515
vn -0.9882 0.1442 0.0523
vn -0.9735 -0.2287 0.0002
vn -0.9883 0.1525 0.0062
vn -0.9883 0.1525 0.0066
vn -0.9883 0.1525 0.0060
vn -0.9199 -0.3904 0.0372
vn 0.0271 0.7528 0.6577
vn -0.5412 -0.3158 0.7793
vn -0.9847 0.1660 0.0527
vn -0.8555 0.2809 -0.4350
vn 0.0245 -0.6622 0.7489
vn -0.9882 0.1516 0.0199
vn -0.9886 0.1441 0.0435
vn -0.9840 0.1771 0.0195
vn -0.9740 0.2254 0.0211
vn 0.9993 -0.0341 -0.0123
vn 0.9826 -0.0752 0.1697
vn 0.9473 -0.3194 0.0244
vn -0.9473 0.3146 -0.0609
vn 0.9875 -0.1572 0.0119
vn -0.9631 0.1742 -0.2053
vn -0.9290 0.3233 -0.1802
vn 0.9999 -0.0129 -0.0057
vn 0.9999 -0.0104 -0.0045
vn 1.0000 -0.0019 -0.0008
vn 0.9981 -0.0582 0.0189
vn 0.9994 -0.0324 0.0137
vn 0.9999 -0.0098 0.0113
vn 0.9999 -0.0093 0.0116
vn 0.9999 -0.0103 0.0107
vn -0.9997 -0.0087 0.0244
vn -0.9997 -0.0095 0.0243
vn -0.9997 -0.0047 0.0249
vn 0.9999 -0.0132 0.0084
vn 1.0000 -0.0062 0.0074
vn 0.9999 -0.0115 0.0082
vn 0.9999 -0.0135 0.0085
vn -0.9997 -0.0000 0.0255
vn 0.9999 -0.0111 0.0099
vn 0.9998 -0.0141 0.0132
vn 0.9998 -0.0122 0.0136
vn 0.9999 -0.0112 0.0117
vn 0.9998 -0.0144 0.0136
vt 0.375000 0.500000
vt 0.250000 0.500000
vt 0.524321 0.500000
vt 0.625000 0.500000
vt 0.625000 0.750000
vt 0.524321 0.750000
vt 0.375000 0.750000
vt 0.250000 0.750000
vt 0.500000 0.500000
vt 0.524321 0.500000
vt 0.750000 0.500000
vt 0.750000 0.750000
vt 0.500000 0.750000
vt 0.000000 0.000000
vt 0.524321 0.750000
vt 0.524321 0.375000
vt 0.625000 0.375000
vt 0.524321 0.750000
vt 0.625000 0.875000
vt 0.524321 0.875000
vt 0.500000 0.875000
vt 0.375000 0.875000
vt 0.524321 0.375000
vt 0.625000 0.375000
vt 0.500000 0.375000
vt 0.524321 0.375000
vt 0.250000 0.750000
vt 0.250000 0.750000
s 1
usemtl Material.016
f 7/1/1 9/2/1 29/2/1 27/1/1
f 70/3/2 8/4/2 6/5/2 69/6/2
f 9/2/3 7/1/3 5/7/3 11/8/3
f 70/3/4 4/9/4 26/9/4 76/10/4
f 8/4/5 10/11/5 12/12/5 6/5/5
f 7/1/6 4/9/6 3/13/6 5/7/6
f 6/5/7 12/12/7 18/12/7 16/5/7
f 11/8/8 5/7/8 15/7/8 17/8/8
f 71/14/9 13/14/9 19/14/10 73/14/11
f 16/5/12 18/12/12 24/12/12 22/5/12
f 69/6/13 6/5/13 16/5/13 72/6/13
f 68/14/14 2/14/14 13/14/14 71/14/14
f 5/7/15 3/13/15 14/13/15 15/7/15
f 2/14/16 11/14/16 17/14/16 13/14/16
f 23/8/17 21/7/17 33/7/17 35/8/17
f 74/15/18 22/5/18 34/5/18 78/15/18
f 15/7/19 14/13/19 20/13/19 21/7/19
f 13/14/20 17/14/20 23/14/20 19/14/20
f 72/6/21 16/5/21 22/5/21 74/15/21
f 17/8/22 15/7/22 21/7/22 23/8/22
f 75/16/23 30/17/23 28/4/23 76/10/23
f 9/14/24 1/14/24 25/14/24 29/14/24
f 4/9/25 7/1/25 27/1/25 26/9/25
f 67/14/26 10/14/26 30/14/26 75/14/26
f 10/11/27 8/4/27 28/4/27 30/11/27
f 34/5/28 36/12/28 42/12/28 40/5/28
f 35/8/29 33/7/29 39/7/29 41/8/29
f 22/5/30 24/12/30 36/12/30 34/5/30
f 73/14/11 19/14/10 31/14/31 77/14/31
f 21/7/32 20/13/32 32/13/32 33/7/32
f 19/14/33 23/14/33 35/14/33 31/14/33
f 37/14/14 41/14/14 47/14/14 43/14/14
f 39/7/34 38/13/35 44/13/36 45/7/36
f 77/14/14 31/14/14 37/14/14 79/14/14
f 33/7/37 32/13/37 38/13/35 39/7/34
f 31/14/14 35/14/14 41/14/14 37/14/14
f 78/15/38 34/5/38 40/5/38 80/18/38
f 81/14/14 43/14/14 49/14/14 83/14/14
f 46/5/39 48/12/39 54/12/39 52/5/39
f 80/18/40 40/5/40 46/5/40 82/15/40
f 41/8/41 39/7/41 45/7/41 47/8/41
f 40/5/42 42/12/42 48/12/42 46/5/42
f 79/14/14 37/14/14 43/14/14 81/14/14
f 84/15/43 52/5/44 58/5/44 86/15/45
f 49/14/14 53/14/14 59/14/14 55/14/14
f 45/7/46 44/13/46 50/13/46 51/7/46
f 43/14/14 47/14/14 53/14/14 49/14/14
f 82/15/47 46/5/48 52/5/48 84/15/49
f 47/8/50 45/7/50 51/7/50 53/8/50
f 85/14/14 55/14/14 61/14/14 87/14/14
f 58/5/51 60/12/51 66/12/51 64/5/51
f 53/8/52 51/7/52 57/7/52 59/8/52
f 52/5/53 54/12/53 60/12/53 58/5/53
f 83/14/14 49/14/14 55/14/14 85/14/14
f 51/7/54 50/13/54 56/13/54 57/7/54
f 88/15/55 64/5/55 66/19/55 87/20/55
f 63/7/56 62/13/56 61/21/56 65/22/56
f 57/7/57 56/13/57 62/13/57 63/7/57
f 55/14/14 59/14/14 65/14/14 61/14/14
f 86/15/58 58/5/58 64/5/58 88/15/58
f 59/8/59 57/7/59 63/7/59 65/8/59
f 56/13/60 86/15/60 88/15/60 62/13/60
f 62/13/61 88/15/61 87/20/61 61/21/61
f 54/14/14 83/14/14 85/14/14 60/14/14
f 60/14/14 85/14/14 87/14/14 66/14/14
f 44/13/62 82/15/47 84/15/49 50/13/62
f 50/13/63 84/15/43 86/15/45 56/13/63
f 42/14/14 79/14/14 81/14/14 48/14/14
f 38/13/64 80/18/64 82/15/64 44/13/64
f 48/14/14 81/14/14 83/14/14 54/14/14
f 32/13/65 78/15/65 80/18/65 38/13/65
f 36/14/14 77/14/14 79/14/14 42/14/14
f 24/14/66 73/14/66 77/14/66 36/14/66
f 1/14/67 67/14/67 75/14/67 25/14/67
f 25/14/68 75/14/68 113/14/68 111/14/68
f 14/13/21 72/6/21 74/15/21 20/13/21
f 20/13/18 74/15/18 78/15/18 32/13/18
f 12/14/69 68/14/69 71/14/69 18/14/69
f 3/13/70 69/6/70 72/6/70 14/13/70
f 18/14/71 71/14/71 73/14/71 24/14/71
f 8/4/72 70/3/72 76/10/72 28/4/72
f 4/9/73 70/3/73 69/6/73 3/13/73
f 42/12/68 48/12/68 94/12/68 93/12/68
f 48/12/68 54/12/68 95/12/68 94/12/68
f 36/12/68 42/12/68 93/12/68 92/12/68
f 12/12/7 18/12/7 90/12/7 89/12/7
f 24/12/30 36/12/30 92/12/30 91/12/30
f 18/12/12 24/12/12 91/12/12 90/12/12
f 94/12/14 95/12/14 102/12/14 101/12/14
f 91/12/74 92/12/75 99/12/76 98/12/74
f 90/12/77 91/12/77 98/12/77 97/12/77
f 93/12/14 94/12/14 101/12/14 100/12/14
f 92/12/75 93/12/14 100/12/14 99/12/76
f 89/12/78 90/12/78 97/12/78 96/12/78
f 121/23/14 120/24/14 104/17/14 105/16/14
f 106/14/14 103/14/14 107/14/14 108/14/14
f 29/14/14 25/14/14 103/14/14 106/14/14
f 108/14/14 107/14/14 109/14/14 110/14/14
f 111/25/23 113/16/23 114/10/23 112/9/23
f 26/9/68 25/25/68 111/25/68 112/9/68
f 124/16/14 123/16/14 117/16/14 122/26/14
f 76/10/23 26/9/23 112/9/23 114/10/23
f 115/16/68 116/10/68 119/10/68 118/16/68
f 113/14/68 75/14/68 115/14/68 118/14/68
f 76/10/68 114/10/68 119/10/68 116/10/68
f 75/16/79 76/10/79 116/10/79 115/16/79
f 114/10/80 113/16/80 118/16/80 119/10/80
f 75/16/14 121/23/14 124/16/14 122/26/14 115/16/14
f 75/16/14 30/17/14 120/24/14 121/23/14
f 121/23/14 105/16/14 123/16/14 124/16/14
f 105/16/14 104/17/14 125/17/14 126/16/14
f 126/16/14 125/17/14 127/17/14 128/16/14
f 128/16/14 127/17/14 129/17/14 130/16/14
f 140/8/81 135/8/82 133/8/83 139/27/81
f 137/14/84 135/14/85 133/14/86 132/14/86
f 137/8/87 138/8/88 131/8/89 132/8/89
f 17/8/90 11/8/90 138/8/88 137/8/87
f 17/14/91 23/14/91 135/14/85 137/14/84
f 35/8/92 23/8/92 135/8/82 140/8/81 141/8/93 136/28/94
f 141/8/93 140/8/81 139/27/81 142/8/95
f 136/28/94 141/8/93 142/8/95 134/8/96
f 143/14/14 144/14/14 146/14/14 145/14/14
f 145/14/14 146/14/14 148/14/14 147/14/14
f 155/1/1 175/1/1 177/2/1 157/2/1
f 218/3/97 217/6/97 154/5/97 156/4/97
f 157/2/3 159/8/3 153/7/3 155/1/3
f 218/3/98 224/10/98 174/9/98 152/9/98
f 156/4/5 154/5/5 160/12/5 158/11/5
f 155/1/99 153/7/99 151/13/99 152/9/99
f 154/5/7 164/5/7 166/12/7 160/12/7
f 159/8/8 165/8/8 163/7/8 153/7/8
f 219/14/100 221/14/101 167/14/102 161/14/100
f 164/5/12 170/5/12 172/12/12 166/12/12
f 217/6/103 220/6/103 164/5/103 154/5/103
f 216/14/104 219/14/104 161/14/104 150/14/104
f 153/7/105 163/7/105 162/13/105 151/13/105
f 150/14/106 161/14/106 165/14/106 159/14/106
f 171/8/17 183/8/17 181/7/17 169/7/17
f 222/15/107 226/15/107 182/5/107 170/5/107
f 163/7/108 169/7/108 168/13/108 162/13/108
f 161/14/109 167/14/109 171/14/109 165/14/109
f 220/6/110 222/15/110 170/5/110 164/5/110
f 165/8/22 171/8/22 169/7/22 163/7/22
f 223/16/23 224/10/23 176/4/23 178/17/23
f 157/14/111 177/14/111 173/14/111 149/14/111
f 152/9/112 174/9/112 175/1/112 155/1/112
f 215/14/113 223/14/113 178/14/113 158/14/113
f 158/11/27 178/11/27 176/4/27 156/4/27
f 182/5/28 188/5/28 190/12/28 184/12/28
f 183/8/29 189/8/29 187/7/29 181/7/29
f 170/5/30 182/5/30 184/12/30 172/12/30
f 221/14/101 225/14/114 179/14/114 167/14/102
f 169/7/115 181/7/115 180/13/115 168/13/115
f 167/14/116 179/14/116 183/14/116 171/14/116
f 185/14/104 191/14/104 195/14/104 189/14/104
f 187/7/117 193/7/118 192/13/118 186/13/119
f 225/14/104 227/14/104 185/14/104 179/14/104
f 181/7/120 187/7/117 186/13/119 180/13/120
f 179/14/104 185/14/104 189/14/104 183/14/104
f 226/15/121 228/18/121 188/5/121 182/5/121
f 229/14/104 231/14/104 197/14/104 191/14/104
f 194/5/39 200/5/39 202/12/39 196/12/39
f 228/18/122 230/15/122 194/5/122 188/5/122
f 189/8/41 195/8/41 193/7/41 187/7/41
f 188/5/42 194/5/42 196/12/42 190/12/42
f 227/14/104 229/14/104 191/14/104 185/14/104
f 232/15/123 234/15/124 206/5/125 200/5/125
f 197/14/104 203/14/104 207/14/104 201/14/104
f 193/7/126 199/7/126 198/13/126 192/13/126
f 191/14/104 197/14/104 201/14/104 195/14/104
f 230/15/127 232/15/128 200/5/129 194/5/129
f 195/8/50 201/8/50 199/7/50 193/7/50
f 233/14/104 235/14/104 209/14/104 203/14/104
f 206/5/51 212/5/51 214/12/51 208/12/51
f 201/8/52 207/8/52 205/7/52 199/7/52
f 200/5/53 206/5/53 208/12/53 202/12/53
f 231/14/104 233/14/104 203/14/104 197/14/104
f 199/7/130 205/7/130 204/13/130 198/13/130
f 236/15/55 235/20/55 214/19/55 212/5/55
f 211/7/131 213/22/131 209/21/131 210/13/131
f 205/7/132 211/7/132 210/13/132 204/13/132
f 203/14/104 209/14/104 213/14/104 207/14/104
f 234/15/133 236/15/133 212/5/133 206/5/133
f 207/8/59 213/8/59 211/7/59 205/7/59
f 204/13/134 210/13/134 236/15/134 234/15/134
f 210/13/135 209/21/135 235/20/135 236/15/135
f 202/14/104 208/14/104 233/14/104 231/14/104
f 208/14/104 214/14/104 235/14/104 233/14/104
f 192/13/136 198/13/136 232/15/128 230/15/127
f 198/13/137 204/13/137 234/15/124 232/15/123
f 190/14/104 196/14/104 229/14/104 227/14/104
f 186/13/138 192/13/138 230/15/138 228/18/138
f 196/14/104 202/14/104 231/14/104 229/14/104
f 180/13/139 186/13/139 228/18/139 226/15/139
f 184/14/104 190/14/104 227/14/104 225/14/104
f 172/14/140 184/14/140 225/14/140 221/14/140
f 149/14/141 173/14/141 223/14/141 215/14/141
f 173/14/68 259/14/68 261/14/68 223/14/68
f 162/13/110 168/13/110 222/15/110 220/6/110
f 168/13/107 180/13/107 226/15/107 222/15/107
f 160/14/142 166/14/142 219/14/142 216/14/142
f 151/13/143 162/13/143 220/6/143 217/6/143
f 166/14/144 172/14/144 221/14/144 219/14/144
f 156/4/145 176/4/145 224/10/145 218/3/145
f 152/9/146 151/13/146 217/6/146 218/3/146
f 190/12/68 241/12/68 242/12/68 196/12/68
f 196/12/68 242/12/68 243/12/68 202/12/68
f 184/12/68 240/12/68 241/12/68 190/12/68
f 160/12/7 237/12/7 238/12/7 166/12/7
f 172/12/30 239/12/30 240/12/30 184/12/30
f 166/12/12 238/12/12 239/12/12 172/12/12
f 242/12/104 249/12/104 250/12/104 243/12/104
f 239/12/147 246/12/147 247/12/148 240/12/149
f 238/12/150 245/12/150 246/12/150 239/12/150
f 241/12/104 248/12/104 249/12/104 242/12/104
f 240/12/149 247/12/148 248/12/104 241/12/104
f 237/12/151 244/12/151 245/12/151 238/12/151
f 269/23/104 253/16/104 252/17/104 268/24/104
f 254/14/104 256/14/104 255/14/104 251/14/104
f 177/14/104 254/14/104 251/14/104 173/14/104
f 256/14/104 258/14/104 257/14/104 255/14/104
f 259/25/23 260/9/23 262/10/23 261/16/23
f 174/9/68 260/9/68 259/25/68 173/25/68
f 272/16/104 270/26/104 265/16/104 271/16/104
f 224/10/23 262/10/23 260/9/23 174/9/23
f 263/16/68 266/16/68 267/10/68 264/10/68
f 261/14/68 266/14/68 263/14/68 223/14/68
f 224/10/68 264/10/68 267/10/68 262/10/68
f 223/16/79 263/16/79 264/10/79 224/10/79
f 262/10/80 267/10/80 266/16/80 261/16/80
f 223/16/104 263/16/104 270/26/104 272/16/104 269/23/104
f 223/16/104 269/23/104 268/24/104 178/17/104
f 269/23/104 272/16/104 271/16/104 253/16/104
f 253/16/104 274/16/104 273/17/104 252/17/104
f 274/16/104 276/16/104 275/17/104 273/17/104
f 276/16/104 278/16/104 277/17/104 275/17/104
f 288/8/152 287/27/152 281/8/153 283/8/154
f 285/14/155 280/14/156 281/14/156 283/14/157
f 285/8/158 280/8/159 279/8/159 286/8/160
f 165/8/161 285/8/158 286/8/160 159/8/161
f 165/14/162 285/14/155 283/14/157 171/14/162
f 183/8/163 284/28/164 289/8/165 288/8/152 283/8/154 171/8/163
f 289/8/165 290/8/166 287/27/152 288/8/152
f 284/28/164 282/8/167 290/8/166 289/8/165
f 291/14/104 293/14/104 294/14/104 292/14/104
f 293/14/104 295/14/104 296/14/104 294/14/104
